<svg width="63" height="19" viewBox="0 0 63 19" fill="none" xmlns="http://www.w3.org/2000/svg">
<path d="M8.328 1.736C9.4 1.736 10.376 1.872 11.256 2.144C12.136 2.4 12.856 2.784 13.416 3.296C14.424 4.208 15.128 5.208 15.528 6.296C15.944 7.368 16.152 8.744 16.152 10.424C16.152 10.776 16.104 11.096 16.008 11.384C15.928 11.672 15.792 12.04 15.6 12.488C15.36 12.984 15.216 13.376 15.168 13.664C14.848 14.224 14.32 14.76 13.584 15.272C12.864 15.784 12.08 16.2 11.232 16.52C10.384 16.84 9.64 17 9 17C5.912 17 3.712 15.944 2.4 13.832C2.032 13.24 1.744 12.624 1.536 11.984C1.344 11.344 1.248 10.72 1.248 10.112C1.248 8.48 1.536 7.064 2.112 5.864C2.704 4.648 3.52 3.704 4.56 3.032C5.184 2.664 5.832 2.36 6.504 2.12C7.192 1.864 7.8 1.736 8.328 1.736ZM3.744 10.184C3.744 11.048 3.936 11.76 4.32 12.32C4.72 12.88 5.328 13.488 6.144 14.144C6.816 14.4 7.272 14.568 7.512 14.648C7.752 14.712 8.024 14.744 8.328 14.744C9.944 14.744 11.232 14.304 12.192 13.424C13.152 12.544 13.632 11.336 13.632 9.8C13.632 8.584 13.496 7.624 13.224 6.92C12.952 6.216 12.464 5.584 11.76 5.024C11.392 4.72 10.92 4.496 10.344 4.352C9.784 4.208 9.176 4.136 8.52 4.136C7.528 4.136 6.672 4.432 5.952 5.024C5.232 5.6 4.68 6.352 4.296 7.28C3.928 8.208 3.744 9.176 3.744 10.184ZM21.3506 13.28C21.3506 13.888 21.4386 14.36 21.6146 14.696C21.8066 15.016 22.0466 15.176 22.3346 15.176C22.4946 15.176 22.6466 15.168 22.7906 15.152C22.9346 15.12 23.0786 15.104 23.2226 15.104C23.3826 15.104 23.5186 15.184 23.6306 15.344C23.7586 15.504 23.8226 15.68 23.8226 15.872C23.8226 16.256 23.6386 16.56 23.2706 16.784C22.9186 16.992 22.4386 17.096 21.8306 17.096C21.3986 17.096 20.9586 16.968 20.5106 16.712C20.0786 16.44 19.7186 16.024 19.4306 15.464C19.1426 14.888 18.9986 14.176 18.9986 13.328C18.9986 11.504 19.0306 9.96 19.0946 8.696C19.1746 7.192 19.2146 5.296 19.2146 3.008C19.2146 2.288 19.2546 1.784 19.3346 1.496C19.4306 1.272 19.5826 1.104 19.7906 0.991999C20.0146 0.863999 20.2466 0.8 20.4866 0.8C20.7266 0.8 20.9346 0.84 21.1106 0.92C21.3026 1 21.4306 1.128 21.4946 1.304C21.5586 1.496 21.5986 1.688 21.6146 1.88C21.6466 2.056 21.6626 2.312 21.6626 2.648C21.6626 3.304 21.6386 3.936 21.5906 4.544C21.5586 5.28 21.5426 5.816 21.5426 6.152C21.4146 8.968 21.3506 11.344 21.3506 13.28ZM26.6835 1.592C27.2435 1.64 27.7315 1.792 28.1475 2.048C28.5635 2.288 28.7715 2.656 28.7715 3.152C28.7715 3.52 28.5955 3.816 28.2435 4.04C27.9075 4.248 27.4995 4.352 27.0195 4.352C26.5555 4.352 26.2355 4.232 26.0595 3.992C25.8835 3.752 25.7955 3.504 25.7955 3.248C25.7955 2.768 25.8435 2.368 25.9395 2.048C26.0515 1.728 26.2995 1.576 26.6835 1.592ZM28.6035 12.224V12.92C28.6035 13.544 28.6195 14.136 28.6515 14.696C28.6995 15.24 28.7555 15.792 28.8195 16.352C28.8035 16.512 28.6835 16.68 28.4595 16.856C28.2355 17.016 28.0355 17.096 27.8595 17.096C27.5555 17.096 27.2435 17.04 26.9235 16.928C26.6195 16.8 26.4355 16.648 26.3715 16.472C26.2755 15.96 26.2275 15.504 26.2275 15.104C26.2275 13.792 26.1875 12.32 26.1075 10.688C26.0435 9.248 26.0115 8.24 26.0115 7.664C26.0115 7.376 26.1555 7.128 26.4435 6.92C26.7315 6.712 27.0355 6.608 27.3555 6.608C27.8195 6.608 28.1395 6.712 28.3155 6.92C28.5075 7.128 28.6035 7.456 28.6035 7.904V12.224ZM37.1681 10.832C37.2161 10.704 37.3841 10.24 37.6721 9.44C37.9761 8.64 38.2561 8.032 38.5121 7.616C38.9281 6.96 39.2961 6.632 39.6161 6.632C40.0641 6.632 40.4081 6.72 40.6481 6.896C40.8881 7.056 41.0081 7.288 41.0081 7.592C41.0081 7.736 40.9441 7.936 40.8161 8.192C40.7041 8.448 40.6401 8.6 40.6241 8.648C39.9841 10.056 39.4081 11.568 38.8961 13.184L38.3921 15.056C38.2001 15.664 37.8721 16.16 37.4081 16.544C36.9441 16.912 36.4001 17.096 35.7761 17.096C35.2161 17.096 34.6961 16.84 34.2161 16.328C33.9281 15.88 33.6241 15.312 33.3041 14.624C33.0001 13.936 32.7361 13.264 32.5121 12.608L31.6721 10.088C31.4961 9.592 31.3521 9.168 31.2401 8.816C31.1441 8.464 31.0961 8.144 31.0961 7.856C31.0801 7.52 31.1761 7.248 31.3841 7.04C31.5921 6.832 31.8801 6.728 32.2481 6.728C32.6641 6.728 32.9601 6.816 33.1361 6.992C33.3121 7.152 33.4721 7.408 33.6161 7.76C33.6801 8.128 33.8561 8.88 34.1441 10.016L34.3121 10.688C34.4561 11.232 34.6401 11.784 34.8641 12.344C35.0881 12.904 35.3121 13.44 35.5361 13.952C35.5041 13.872 35.6161 14.136 35.8721 14.744C36.0321 14.28 36.2161 13.712 36.4241 13.04L37.1681 10.832ZM42.4695 11.504C42.4695 10.528 42.6855 9.72 43.1175 9.08C43.5495 8.424 44.1495 7.808 44.9175 7.232C45.1415 7.072 45.5175 6.936 46.0455 6.824C46.5735 6.696 47.0375 6.632 47.4375 6.632C47.9175 6.632 48.4215 6.736 48.9495 6.944C49.4935 7.136 49.9335 7.36 50.2695 7.616C50.8615 8.048 51.2695 8.552 51.4935 9.128C51.7175 9.688 51.8295 10.36 51.8295 11.144C51.8295 11.48 51.6375 11.808 51.2535 12.128C50.8855 12.432 50.4855 12.584 50.0535 12.584L49.1415 12.56C48.6775 12.56 48.0135 12.576 47.1495 12.608L46.6455 12.632C46.2935 12.664 46.0295 12.68 45.8535 12.68C45.5975 12.68 45.2455 12.648 44.7975 12.584C44.8615 13.336 45.1415 13.928 45.6375 14.36C46.1335 14.776 46.6695 14.984 47.2455 14.984C48.2535 14.984 48.9575 14.784 49.3575 14.384C49.6935 14.144 49.9175 13.992 50.0295 13.928C50.1415 13.864 50.3175 13.832 50.5575 13.832C50.8135 13.832 51.0375 13.952 51.2295 14.192C51.4215 14.432 51.5175 14.672 51.5175 14.912C51.5175 15.184 51.3495 15.464 51.0135 15.752C50.6935 16.024 50.2535 16.312 49.6935 16.616C49.3895 16.744 48.9735 16.856 48.4455 16.952C47.9175 17.048 47.4775 17.096 47.1255 17.096C46.5655 17.096 45.9415 16.936 45.2535 16.616C44.5655 16.28 44.0535 15.912 43.7175 15.512C43.3815 15.112 43.0855 14.544 42.8295 13.808C42.5895 13.072 42.4695 12.304 42.4695 11.504ZM47.2455 10.856C48.3815 10.856 49.2135 10.816 49.7415 10.736C49.7095 10.272 49.5655 9.896 49.3095 9.608C49.0535 9.304 48.7015 9.048 48.2535 8.84C48.1095 8.776 47.9815 8.728 47.8695 8.696C47.7575 8.664 47.6295 8.648 47.4855 8.648C46.7495 8.648 46.1255 8.848 45.6135 9.248C45.1175 9.648 44.8215 10.16 44.7255 10.784C45.5255 10.832 46.3655 10.856 47.2455 10.856ZM57.4361 16.04C57.4041 16.312 57.2921 16.552 57.1001 16.76C56.9081 16.968 56.6601 17.072 56.3561 17.072C55.8761 17.072 55.5241 16.984 55.3001 16.808C55.0761 16.616 54.9641 16.272 54.9641 15.776C54.9641 15.104 55.0041 14.368 55.0841 13.568C55.1481 12.64 55.1801 11.928 55.1801 11.432C55.1801 11.176 55.1641 10.856 55.1321 10.472C55.1001 10.12 55.0841 9.856 55.0841 9.68C55.0361 9.408 54.9241 9.192 54.7481 9.032C54.5881 8.872 54.3321 8.736 53.9801 8.624C53.8361 8.56 53.7161 8.456 53.6201 8.312C53.5241 8.152 53.4761 8.008 53.4761 7.88C53.4761 7.512 53.6201 7.232 53.9081 7.04C54.1961 6.848 54.5481 6.752 54.9641 6.752C55.4281 6.752 55.8281 6.912 56.1641 7.232C56.5001 7.552 56.7561 7.952 56.9321 8.432C57.3001 7.904 57.7481 7.48 58.2761 7.16C58.8201 6.84 59.3481 6.68 59.8601 6.68C60.5161 6.68 61.0681 6.792 61.5161 7.016C61.9801 7.224 62.2121 7.592 62.2121 8.12C62.2121 8.424 62.0761 8.744 61.8041 9.08C61.5481 9.4 61.2841 9.56 61.0121 9.56C60.8041 9.56 60.5561 9.464 60.2681 9.272C60.1561 9.192 60.0281 9.128 59.8841 9.08C59.7561 9.016 59.6201 8.984 59.4761 8.984C59.2201 8.984 58.9801 9.024 58.7561 9.104C58.5321 9.184 58.3801 9.28 58.3001 9.392C58.0441 9.792 57.8521 10.152 57.7241 10.472C57.6121 10.792 57.5561 11.136 57.5561 11.504C57.5561 11.776 57.5481 11.992 57.5321 12.152L57.5081 13.52L57.5321 14.432C57.5321 15.104 57.5001 15.64 57.4361 16.04Z" fill="#0D151E"/>
</svg>