<?xml version="1.0" encoding="utf-8"?>
<!-- Generator: Adobe Illustrator 25.4.0, SVG Export Plug-In . SVG Version: 6.00 Build 0)  -->
<svg version="1.0" id="Layer_1" xmlns="http://www.w3.org/2000/svg" xmlns:xlink="http://www.w3.org/1999/xlink" x="0px" y="0px"
	 viewBox="0 0 20.6 19" style="enable-background:new 0 0 20.6 19;" xml:space="preserve">
<style type="text/css">
	.st0{fill:#FFFFFF;}
</style>
<path class="st0" d="M10.3,0.7c-4.8,0-8.8,4-8.8,8.8c0,4.9,3.9,8.8,8.8,8.8c4.8,0,8.8-3.9,8.8-8.7C19.1,4.7,15.1,0.7,10.3,0.7z
	 M10.3,17.4c-4.3,0-7.9-3.6-7.9-7.9c0-4.4,3.6-7.9,8-7.8c4.3,0,7.8,3.6,7.8,7.9C18.2,13.9,14.6,17.4,10.3,17.4z"/>
<path class="st0" d="M14.9,11.4c-1.6-0.6-3.2-0.1-4.8,0.3C9,12,7.9,12.4,6.7,12.1c-0.4-0.1-0.2,0.2-0.2,0.3c0.1,0.9-0.2,1.6-0.7,2.3
	C3.4,13,2.6,9.2,4.1,6.3c1.6-3.1,5.1-4.5,8.4-3.5c3.3,1,5.4,4.5,4.7,7.9c-0.4-0.9-0.9-1.6-1.5-2.1c-0.2-0.2-0.4-0.4-0.8-0.1
	c0.4-0.7,0.4-1.3,0-2c-0.4-0.4-1-0.6-1.6-0.4c-0.7,0.3-1,0.8-1,1.6C11.1,7.4,10,7.3,9,7.8C8.7,7.9,8.8,7.7,8.7,7.5
	C8.4,7,7.9,6.6,7.3,6.6C6.7,6.6,6.2,7,6,7.6C5.8,8.1,5.9,8.8,6.4,9.1c0.3,0.2,0.3,0.4,0.1,0.6c-0.3,0.3-0.4,0.7-0.6,1.1
	c-0.1,0.4,0,0.5,0.3,0.5c1.2,0.1,2.3-0.2,3.5-0.5c1-0.3,1.9-0.5,2.9-0.5C13.5,10.5,14.2,10.8,14.9,11.4z"/>
<path class="st0" d="M12.9,8c0-0.3,0.2-0.5,0.5-0.5C13.8,7.5,14,7.7,14,8c0,0.4-0.2,0.6-0.6,0.6C13.1,8.6,12.9,8.4,12.9,8z"/>
<path class="st0" d="M7.6,9C7.3,9,7.1,8.8,7.1,8.4c0-0.4,0.2-0.6,0.6-0.6C8,7.8,8.2,8,8.2,8.4C8.2,8.8,8,8.9,7.6,9z"/>
</svg>
