<?xml version="1.0" encoding="utf-8"?>
<!-- Generator: Adobe Illustrator 25.4.0, SVG Export Plug-In . SVG Version: 6.00 Build 0)  -->
<svg version="1.1" id="Layer_1" xmlns="http://www.w3.org/2000/svg" xmlns:xlink="http://www.w3.org/1999/xlink" x="0px" y="0px"
	 viewBox="0 0 486.5 487.2" style="enable-background:new 0 0 486.5 487.2;" xml:space="preserve">
<style type="text/css">
	.st0{fill:#FFFFFF;}
</style>
<path class="st0" d="M243.2,13.2C116.6,13.2,14,115.9,14,242.5s102.6,229.3,229.3,229.3c126.6,0,229.3-102.6,229.3-229.3
	S369.8,13.2,243.2,13.2z M308.3,103.6c13.4,0,24.3,10.9,24.3,24.3s-10.9,24.3-24.3,24.3S284,141.4,284,127.9
	S294.9,103.6,308.3,103.6z M181.7,358.2c-1,2-2.6,3-4.8,3c-8.3,0-16.6,0.4-24.9,0.1c-6.5-0.3-13-1.1-19.4-2.2
	c-25.2-4.3-47.9-14.2-67.7-30.5c-0.9-0.8-1.8-1.6-2.9-2.6c11.1-13.2,22.1-26.5,33.3-39.8c2.6,1.8,5,3.6,7.4,5.3
	c13.5,9.5,28.3,16.1,44.6,18.9c9.9,1.7,20,2.6,29.9,0.1c3.6-0.9,6.9-2.3,9.5-5.2c4.9-5.6,3.7-14.2-2.5-18.3c-6.1-4.1-13-6-20-7.9
	c-12.6-3.4-25.3-6.3-37.8-9.9c-12.2-3.5-23.8-8.4-34-16.3c-10.4-8-16.9-18.3-19.2-31.2c-2.5-13.8-1.5-27.2,4.1-40.1
	c7.2-16.7,20-27.8,36.6-34.7c13.8-5.8,28.3-8,43.1-7.6c8.1,0.2,16.3,1.1,24.4,1.7c1.5,0.1,2.6,0.8,3.6,2.2
	c12.3,18.6,24.7,37.1,37.2,55.8c-2.6,3.8-5.3,7.4-7.9,11.2c-3.4-2.2-6.6-4.3-10-6.3c-11.7-6.9-24.2-11.8-37.7-13.9
	c-7.7-1.2-15.5-1.9-23.1,0.4c-1.9,0.6-3.7,1.4-5.4,2.4c-7.2,4.5-7.6,16,0.3,20.8c5.6,3.4,11.8,5.3,18.1,6.9
	c11.4,2.9,22.8,5.5,34.2,8.6c11.7,3.2,22.9,7.5,33.2,14.1c8.2,5.2,15.1,11.7,19.7,20.4c0.6,1.2,0.5,1.9-0.2,2.8
	c-7.6,11.2-15.1,22.4-22.7,33.6c-12.2,18.1-24.3,36.1-36.5,54.2C183.5,355.5,182.4,356.8,181.7,358.2z M351.9,358
	c-1.8,0-2.8-0.5-3.7-2.1c-13.1-20.9-26.3-41.7-39.7-62.9c-0.9,1.4-1.8,2.6-2.6,3.8c-12.7,19.9-25.3,39.7-37.9,59.6
	c-0.7,1.1-1.5,1.5-2.7,1.5c-21.2,0-42.5,0-63.7,0c-0.5,0-0.9-0.1-1.8-0.2c1.3-2,2.5-3.7,3.6-5.4c20.3-30.1,40.6-60.2,60.8-90.2
	c2.8-4.1,5.5-8.2,8.3-12.3c0.8-1.1,0.7-1.9,0-3c-11.3-16.8-22.6-33.7-33.9-50.6c-10-14.9-20-29.9-30-44.8c-1.9-2.8-3.8-5.6-5.7-8.6
	c0.5-0.1,0.8-0.3,1.2-0.3c22.1,0,44.2,0,66.3,0c1.7,0,2,1.1,2.6,2c5.2,8.3,10.3,16.6,15.5,24.8c6.9,11.1,13.9,22.2,20.9,33.4
	c5.5-8.7,11-17.2,16.4-25.7c7.1-11.1,14.2-22.3,21.4-33.4c0.3-0.5,1.1-1.1,1.7-1.1c21.3,0,42.6,0,63.9,0c0.6,0,1.3,0,2.4,0
	c-23.7,35.1-47.2,69.9-70.7,104.8c24.5,36.6,49,73.3,73.9,110.5c-2,0-3.4,0-4.8,0C393.1,357.9,372.5,357.9,351.9,358z"/>
</svg>
