<?xml version="1.0" encoding="UTF-8"?>
<svg id="Camada_1" xmlns="http://www.w3.org/2000/svg" version="1.1" xmlns:xlink="http://www.w3.org/1999/xlink" viewBox="0 0 539 720">
  <!-- Generator: Adobe Illustrator 29.3.0, SVG Export Plug-In . SVG Version: 2.1.0 Build 67)  -->
  <defs>
    <style>
      .st0 {
        fill: #e1e9f4;
      }

      .st1 {
        fill: none;
      }

      .st2 {
        fill: #ededed;
      }

      .st3 {
        clip-path: url(#clippath);
      }

      .st4 {
        fill: #fab700;
      }
    </style>
    <clipPath id="clippath">
      <rect class="st1" x="-330" y="0" width="869" height="720"/>
    </clipPath>
  </defs>
  <g class="st3">
    <g>
      <path class="st2" d="M-7.3,303.3c31.5,0,57.1-25.6,57.1-57.1s-25.6-57.1-57.1-57.1-57.1,25.6-57.1,57.1,25.6,57.1,57.1,57.1ZM-7.3,216.3c16.5,0,29.9,13.4,29.9,29.9s-13.4,29.9-29.9,29.9-29.9-13.4-29.9-29.9,13.4-29.9,29.9-29.9Z"/>
      <path class="st4" d="M-129.3,720c110.7,0,200.7-90,200.7-200.7s-90-200.7-200.7-200.7-200.7,90-200.7,200.7,90,200.7,200.7,200.7ZM-129.3,321.3c109.2,0,198,88.8,198,198s-88.8,198-198,198-198-88.8-198-198,88.8-198,198-198Z"/>
      <path class="st0" d="M33.2,418c26.1,0,55.8-5.2,80.1-23.2,43.1-32,51.4-87.9,59.3-142,3.1-21,6.3-42.7,11.5-62.7,18.8-72.2,70.5-133.9,138.4-164.9,67.9-31,148.3-29.9,215.2,3.1l1.2-2.4c-67.6-33.4-149-34.6-217.6-3.2-68.6,31.4-120.9,93.7-139.9,166.7-5.2,20.1-8.5,41.9-11.6,63-7.9,53.6-16.1,108.9-58.3,140.2-32.3,24-74.7,24.6-104.6,21-65.6-8-128-41.2-171.4-91l-2.1,1.8c43.8,50.3,106.9,83.8,173.1,91.9,8.1,1,17,1.7,26.5,1.7Z"/>
    </g>
  </g>
</svg>