<svg id="Layer_1" data-name="Layer 1" xmlns="http://www.w3.org/2000/svg" viewBox="0 0 29 29"><defs><style>.cls-1{fill:#dfeaee;}.cls-2{fill:#94a8b2;}</style></defs><path class="cls-1" d="M29.58,15.5a14.47,14.47,0,0,1-3.92,9.92l-.05,0a15.07,15.07,0,0,1-2.09,1.82,14.46,14.46,0,0,1-19-1.82l-.06,0A14.5,14.5,0,1,1,29.58,15.5Z" transform="translate(-0.58 -1)"/><path class="cls-2" d="M25.61,25.47a15.07,15.07,0,0,1-2.09,1.82,14.46,14.46,0,0,1-19-1.82,3.19,3.19,0,0,1,2.11-1.81c1.31-.5,2.27-.75,3.6-1.19a3.87,3.87,0,0,0,2.07-1.89,5.15,5.15,0,0,0,.33-2.5,3.26,3.26,0,0,1-.45-.48,7.29,7.29,0,0,1-1.1-2.51.44.44,0,0,1-.4-.05.93.93,0,0,1-.29-.53A10.56,10.56,0,0,1,10.1,13a1.35,1.35,0,0,1,0-.4.46.46,0,0,1,.23-.31h0a16,16,0,0,1,.21-2.93,5.67,5.67,0,0,1,.66-2A3.76,3.76,0,0,1,13,5.8l.24-.09h0A1.87,1.87,0,0,1,17,5.7h0l.24.09A3.79,3.79,0,0,1,19,7.29a5.46,5.46,0,0,1,.65,2,14.4,14.4,0,0,1,.21,2.93h0a.46.46,0,0,1,.23.31,1.08,1.08,0,0,1,0,.4,10.53,10.53,0,0,1-.32,1.56,1.07,1.07,0,0,1-.29.53.44.44,0,0,1-.4.05,7.29,7.29,0,0,1-1.11,2.51,2.8,2.8,0,0,1-.45.48,5.15,5.15,0,0,0,.33,2.5,3.9,3.9,0,0,0,2.07,1.89c1.33.44,2.29.69,3.61,1.19A3.24,3.24,0,0,1,25.61,25.47Z" transform="translate(-0.58 -1)"/></svg>