<?xml version="1.0" encoding="UTF-8"?>
<svg xmlns="http://www.w3.org/2000/svg" version="1.1" xmlns:xlink="http://www.w3.org/1999/xlink" viewBox="0 0 184.9 29.3">
  <defs>
    <style>
      .cls-1 {
        fill: #af2323;
      }

      .cls-2 {
        fill: #fff;
      }

      .cls-3 {
        opacity: .4;
      }

      .cls-4 {
        fill: none;
      }

      .cls-5 {
        fill: #df0a0a;
      }

      .cls-6 {
        fill: #fcb614;
      }

      .cls-7 {
        display: none;
      }

      .cls-8 {
        clip-path: url(#clippath);
      }

      .cls-9 {
        fill: #6f7271;
      }
    </style>
    <clipPath id="clippath">
      <rect class="cls-4" y="-8.7" width="218.3" height="37.1"/>
    </clipPath>
  </defs>
  <!-- Generator: Adobe Illustrator 28.8.0, SVG Export Plug-In . SVG Version: 1.2.0 Build 43)  -->
  <g>
    <g id="Camada_1">
      <g class="cls-7">
        <g class="cls-8">
          <g>
            <path class="cls-1" d="M0,6.5c0-1.1.6-2.1,1.4-2.9.8-.8,1.8-1.2,2.9-1.3h3.1c0,0,.4,9,.4,9L0,6.5Z"/>
            <path class="cls-1" d="M0,16.2c-.2-1.6,0-3.1.9-4.5.8-1.3,2.1-2.3,3.6-2.8l1.6-.5,6.4,11.9L0,16.2Z"/>
            <path class="cls-2" d="M43.9,7.6l-2.9-5-1.3-2.2-3.8-6.6c-.4-.7-1-1.3-1.7-1.7-.7-.4-1.5-.6-2.4-.6h-15.9c-.8,0-1.7.2-2.4.6-.7.4-1.3,1-1.7,1.7L3.9,7.6c-.1.2-.2.4-.3.6-.3.7-.4,1.4-.3,2.1,0,.7.3,1.4.6,2l1.5,2.6,1.3,2.2,5.1,8.8h0c.4.9,1,1.5,1.7,1.9.7.4,1.5.6,2.4.6h15.9c.8,0,1.7-.2,2.4-.6.7-.4,1.3-1,1.7-1.7l7.9-13.7c.4-.7.6-1.5.6-2.4s-.2-1.7-.6-2.4ZM39,11.7l-6,10.3c-.3.5-.8,1-1.3,1.3-.5.3-1.2.5-1.8.5h-11.9c-.3,0-.5,0-.8,0-.5-.1-.9-.3-1.3-.6-.4-.3-.7-.7-1-1.1l-3.3-5.7-1.1-1.8-1.7-2.9c-.3-.5-.4-1-.5-1.5,0-.5,0-1.1.2-1.6,0-.2.2-.4.2-.5L14.9-2.2c.3-.5.8-1,1.3-1.3.5-.3,1.2-.5,1.8-.5h11.9c.6,0,1.2.2,1.8.5.5.3,1,.8,1.3,1.3l.5.8,1.8,3.2.9,1.6,1.7,3,1,1.8c.3.5.5,1.2.5,1.8s-.2,1.2-.5,1.8h0Z"/>
            <g class="cls-3">
              <path class="cls-2" d="M17.2,23.8c-.9.5-1.9,1-2.8,1.4-.8.4-1.7.6-2.5.8l-5.1-8.8c1.6-.1,3.3-.4,4.9-.7l3.3,5.7c.2.4.6.8,1,1.1.4.3.8.5,1.3.6Z"/>
              <path class="cls-2" d="M41,2.6c-1,1.3-2,2.6-3.1,3.8l-1.7-3c1.2-1,2.4-2,3.6-3l1.3,2.2Z"/>
              <path class="cls-2" d="M8.9,11.7l1.7,2.9c-.7.2-1.3.3-2,.4-1,.2-2.1.2-3.1-.1l-1.5-2.6c-.4-.6-.6-1.3-.6-2,0-.7,0-1.4.3-2.1,1.6.3,3.3.5,5,.5-.2.5-.3,1-.2,1.6,0,.5.2,1,.5,1.5Z"/>
              <path class="cls-2" d="M37.5-2.3l-2.3,4.1-1.8-3.2,4.1-.9Z"/>
            </g>
            <path class="cls-5" d="M39.5-4.6l3.6.8C28.5,9.9,14.2,18,0,16.2c.1,1.6.6,3.1,1.4,4.4.8,1.3,2,2.5,3.3,3.3,1.4.8,2.9,1.3,4.5,1.3,1.6,0,3.1-.2,4.6-.9,11.5-5.2,21.4-14.9,30.2-27.4l1.4,3.4,2.5-9.1-8.5,4Z"/>
            <path class="cls-5" d="M8.1,14.3c8.8-1.7,17.2-6.8,25.4-14l.4,2.5,3.2-5.8-6.5,1.4,2.5,1.2C20.8,6.7,9.5,10,0,6.5,0,7.6,0,8.7.3,9.7c.3,1,.9,2,1.7,2.8.8.8,1.7,1.3,2.8,1.6,1.1.3,2.2.4,3.2.2Z"/>
            <path class="cls-2" d="M57.6,21.8c-1.4,0-2.7-.3-3.9-1-1.2-.6-2.1-1.5-2.8-2.7-.2-.3-.3-.7-.3-1,0-.2,0-.5.1-.7,0-.2.2-.4.4-.6.3-.3.7-.5,1.2-.5.3,0,.6,0,.9.3.3.2.5.4.8.7.4.6,1,1.1,1.6,1.4.6.3,1.3.5,2,.5.8,0,1.6-.2,2.3-.6.7-.4,1.2-.9,1.7-1.6.4-.7.6-1.5.6-2.2V-1.9c0-.2,0-.5.1-.7,0-.2.2-.4.4-.6.4-.3.8-.5,1.4-.5.2,0,.5,0,.7.1.2,0,.4.2.6.4.2.2.3.4.4.6,0,.2.1.5.1.7v15.7c0,1.4-.4,2.8-1.1,4-.7,1.2-1.8,2.2-3,2.9-1.3.7-2.8,1.1-4.3,1.1Z"/>
            <path class="cls-2" d="M86.9,2.2c.2,0,.5,0,.7.1.2,0,.4.2.6.4.2.2.3.4.4.6,0,.2.1.5.1.7v15.6c0,.2,0,.5-.1.7,0,.2-.2.4-.4.6-.3.3-.8.5-1.3.5s-.9-.2-1.3-.5c-.2-.2-.3-.4-.4-.6,0-.2-.1-.5-.1-.7v-2.6h.8c0,.7-.2,1.2-.5,1.6-.4.6-.9,1.1-1.4,1.5-.6.5-1.4.9-2.1,1.2-.8.3-1.7.5-2.6.5-1.6,0-3.1-.4-4.5-1.3-1.3-.9-2.4-2.1-3.1-3.5-.8-1.6-1.2-3.3-1.2-5.1,0-1.8.4-3.5,1.2-5.1.7-1.4,1.8-2.6,3.1-3.5,1.1-.7,2.3-1.1,3.5-1.2,1.2-.1,2.5,0,3.7.5.8.3,1.6.7,2.3,1.3.6.5,1.1,1,1.5,1.7.3.5.5,1.1.5,1.7h-1.1c0,.1,0-3.2,0-3.2,0-.5.2-.9.5-1.3.2-.2.4-.3.6-.4.2,0,.5-.1.7-.1ZM79.5,18.5c1.1,0,2.1-.3,3-.9.9-.6,1.6-1.4,2-2.4.5-1,.7-2.2.7-3.3s-.2-2.3-.7-3.3c-.4-1-1.1-1.8-2-2.3-.9-.6-1.9-.9-3-.8-1,0-2.1.3-2.9.8-.9.6-1.6,1.4-2,2.3-.5,1-.7,2.2-.7,3.3s.3,2.3.7,3.3c.5,1,1.1,1.8,2,2.4.9.6,1.9.9,2.9.9h0Z"/>
            <path class="cls-2" d="M102.1,2.1c1.2,0,2.3.1,3.5.4.9.2,1.7.6,2.4,1.2.3.2.5.5.6.8.1.3.2.6.2,1,0,.4-.1.8-.4,1.1-.1.2-.3.3-.5.4-.2,0-.4.1-.6.1-.3,0-.6,0-.9-.2-.2-.1-.4-.3-.6-.4-.2-.2-.4-.4-.7-.5-.4-.2-.8-.3-1.2-.4-.5,0-.9-.1-1.4-.1-1.2,0-2.3.3-3.3.9-.9.6-1.7,1.4-2.2,2.3-.5,1-.8,2.2-.8,3.3,0,1.2.2,2.3.8,3.3.5,1,1.2,1.8,2.1,2.3.9.6,2,.9,3.2.9.6,0,1.2,0,1.7-.2.4,0,.8-.2,1.2-.4.3-.2.7-.4,1-.7.3-.2.7-.4,1.1-.3.2,0,.4,0,.7.1s.4.2.5.4c.3.3.4.8.4,1.2,0,.3-.1.6-.3.9-.2.3-.4.5-.7.7-.8.6-1.6,1-2.5,1.2-1.1.3-2.3.5-3.5.5-1.7,0-3.4-.4-4.8-1.3-1.4-.9-2.5-2.1-3.2-3.5-.8-1.6-1.2-3.3-1.1-5,0-1.8.4-3.5,1.2-5.1.8-1.5,2-2.7,3.4-3.6,1.4-.8,3.1-1.3,4.8-1.2h0Z"/>
            <path class="cls-2" d="M114.5,21.5c-.2,0-.5,0-.7-.1-.2,0-.4-.2-.6-.4-.2-.2-.3-.4-.4-.6,0-.2-.1-.5-.1-.7V-3.4c0-.2,0-.5.1-.7,0-.2.2-.4.4-.6.3-.3.8-.5,1.3-.5s.9.2,1.3.5c.2.2.3.4.4.6,0,.2.1.5.1.7v23c0,.2,0,.5-.1.7,0,.2-.2.4-.4.6-.2.2-.4.3-.6.4s-.5.1-.7.1ZM126.2,2.4c.2,0,.5,0,.7.1.2,0,.4.2.5.4.2.2.3.4.4.6,0,.2.1.5.1.7,0,.2,0,.5-.2.7-.1.2-.3.4-.5.5l-11.3,10.1v-4.1c-.1,0,8.9-8.4,8.9-8.4.2-.2.4-.3.6-.4.2,0,.5-.2.7-.2ZM126.7,21.4c-.3,0-.5,0-.7-.2-.2-.1-.4-.3-.6-.5l-7.2-7.6,2.7-2.5,7,7.6c.4.4.6.9.6,1.4,0,.2,0,.5-.2.7-.1.2-.3.4-.5.6-.3.3-.8.5-1.2.5Z"/>
            <path class="cls-2" d="M140.1,2.1c1.2,0,2.3.1,3.5.4.9.2,1.7.6,2.4,1.2.3.2.5.5.6.8.1.3.2.6.2,1,0,.4-.1.8-.4,1.1-.1.2-.3.3-.5.4-.2,0-.4.1-.6.1-.3,0-.6,0-.9-.2-.2-.1-.4-.3-.6-.4-.2-.2-.4-.4-.7-.5-.4-.2-.8-.3-1.2-.4-.5,0-.9-.1-1.4-.1-1.2,0-2.3.3-3.3.9-.9.6-1.7,1.4-2.2,2.3-.5,1-.8,2.2-.8,3.3,0,1.2.2,2.3.8,3.3.5,1,1.2,1.8,2.1,2.3.9.6,2,.9,3.2.9.6,0,1.2,0,1.7-.2.4,0,.8-.2,1.2-.4.3-.2.7-.4,1-.7.3-.2.7-.4,1.1-.3.2,0,.4,0,.7.1s.4.2.5.4c.3.3.4.8.4,1.2,0,.3-.1.6-.3.9-.2.3-.4.5-.7.7-.8.6-1.6,1-2.5,1.2-1.1.3-2.3.5-3.5.5-1.7,0-3.4-.4-4.8-1.3-1.4-.9-2.5-2.1-3.2-3.5-.8-1.6-1.2-3.3-1.1-5,0-1.8.4-3.5,1.2-5.1.8-1.5,2-2.7,3.4-3.6,1.4-.8,3.1-1.3,4.8-1.2h0Z"/>
            <path class="cls-2" d="M159.2,21.8c-1.8,0-3.6-.4-5.2-1.2-1.4-.8-2.6-2-3.4-3.4-.8-1.5-1.2-3.2-1.2-5,0-1.9.4-3.8,1.3-5.4.8-1.4,1.9-2.6,3.3-3.5,1.3-.8,2.8-1.2,4.4-1.2,1.2,0,2.3.2,3.3.7,2.2,1,3.9,2.7,4.8,4.9.5,1.2.7,2.4.8,3.7,0,.2,0,.5-.2.7,0,.2-.2.4-.4.5-.3.3-.8.5-1.3.5h-14l-.9-3.1h13.5l-.7.6v-.9c0-.8-.4-1.6-.9-2.2-.5-.6-1.1-1.1-1.9-1.5-.7-.4-1.5-.5-2.3-.5-.7,0-1.4.1-2.1.3-.7.2-1.3.6-1.8,1.1-.6.6-1,1.2-1.2,2-.3,1-.5,2-.4,3.1,0,1.2.3,2.4.8,3.5.5,1,1.3,1.7,2.2,2.3.9.5,2,.8,3.1.8.7,0,1.5,0,2.2-.3.5-.2,1-.4,1.4-.7.4-.2.7-.5,1-.8.3-.2.7-.3,1-.3.2,0,.4,0,.6.1.2,0,.4.2.5.3.1.1.3.3.3.5,0,.2.1.4.1.6,0,.3,0,.6-.2.8-.1.2-.3.5-.6.6-.8.7-1.7,1.3-2.7,1.7-1.1.5-2.4.7-3.6.7Z"/>
            <path class="cls-2" d="M173.1,21.5c-.2,0-.5,0-.7-.1-.2,0-.4-.2-.6-.4s-.3-.4-.4-.6c0-.2-.1-.5-.1-.7V4.4c0-.2,0-.5.1-.7,0-.2.2-.4.4-.6.2-.2.4-.3.6-.4.2,0,.5-.1.7-.1.2,0,.5,0,.7.1s.4.2.6.4c.2.2.3.4.4.6,0,.2.1.5.1.7v4l-.4-1.5c.2-.7.5-1.3.9-1.9.4-.6.9-1.1,1.4-1.5,1.1-.9,2.5-1.4,4-1.4.6,0,1.2.2,1.6.5.2.1.4.3.5.5.1.2.2.5.2.7,0,.3,0,.5,0,.8,0,.2-.2.5-.4.7-.3.3-.7.4-1.1.5-.4,0-.7,0-1-.2-.4-.2-.8-.2-1.2-.2-.5,0-1.1.1-1.5.4-.6.3-1,.7-1.4,1.2-.4.5-.8,1.2-1,1.8-.3.8-.4,1.5-.4,2.3v8.6c0,.2,0,.5-.1.7,0,.2-.2.4-.4.6-.2.2-.4.3-.6.4s-.5.1-.7.1Z"/>
            <path class="cls-2" d="M188.2,21.5c-.2,0-.5,0-.7-.1-.2,0-.4-.2-.6-.4s-.3-.4-.4-.6c0-.2-.1-.5-.1-.7V4.4c0-.2,0-.5.1-.7,0-.2.2-.4.4-.6.2-.2.4-.3.6-.4.2,0,.5-.1.7-.1.2,0,.5,0,.7.1.2,0,.4.2.6.4.2.2.3.4.4.6,0,.2.1.5.1.7v4l-.4-1.5c.2-.7.5-1.3.9-1.9.4-.6.9-1.1,1.4-1.5,1.1-.9,2.5-1.4,4-1.4.6,0,1.2.2,1.6.5.2.1.4.3.5.5.1.2.2.5.2.7,0,.3,0,.5,0,.8,0,.2-.2.5-.4.7-.3.3-.7.4-1.1.5-.4,0-.7,0-1-.2-.4-.2-.8-.2-1.2-.2-.5,0-1.1.1-1.5.4-.6.3-1,.7-1.4,1.2-.4.5-.8,1.2-1,1.8-.3.8-.4,1.5-.4,2.3v8.6c0,.2,0,.5-.1.7,0,.2-.2.4-.4.6-.2.2-.4.3-.6.4-.2,0-.5.1-.7.1Z"/>
            <path class="cls-2" d="M216.5,2.2c.2,0,.5,0,.7.1.2,0,.4.2.6.4.2.2.3.4.4.6,0,.2.1.5.1.7v15.6c0,.2,0,.5-.1.7,0,.2-.2.4-.4.6-.3.3-.8.5-1.3.5s-.9-.2-1.3-.5c-.2-.2-.3-.4-.4-.6,0-.2-.1-.5-.1-.7v-2.6h.8c0,.7-.2,1.2-.5,1.6-.4.6-.9,1.1-1.4,1.5-.6.5-1.4.9-2.1,1.2-.8.3-1.7.5-2.6.5-1.6,0-3.1-.4-4.5-1.3-1.3-.9-2.4-2.1-3.1-3.5-.8-1.6-1.2-3.3-1.2-5.1,0-1.8.4-3.5,1.2-5.1.7-1.4,1.8-2.6,3.1-3.5,1.1-.7,2.3-1.1,3.5-1.2,1.2-.1,2.5,0,3.7.5.8.3,1.6.7,2.3,1.3.6.5,1.1,1,1.5,1.7.3.5.5,1.1.5,1.7h-1.1c0,.1,0-3.2,0-3.2,0-.5.2-.9.5-1.3.2-.2.4-.3.6-.4.2,0,.5-.1.7-.1ZM209.2,18.5c1.1,0,2.1-.3,3-.9.9-.6,1.6-1.4,2-2.4.5-1,.7-2.2.7-3.3s-.2-2.3-.7-3.3c-.4-1-1.1-1.8-2-2.3-.9-.6-1.9-.9-3-.8-1,0-2.1.3-2.9.8-.9.6-1.6,1.4-2,2.3-.5,1-.7,2.2-.7,3.3s.3,2.3.7,3.3c.5,1,1.1,1.8,2,2.4.9.6,1.9.9,2.9.9h0Z"/>
          </g>
        </g>
      </g>
      <g>
        <path class="cls-6" d="M21.6.6h-13.3c2.3.4,4.2,1.3,5.7,2.7,2.1,2,3.1,4.9,3.1,8.6v5.6c0,3.8-1,6.6-3.1,8.6-1.5,1.4-3.3,2.3-5.7,2.7h13.3c1.8,0,3.2-1.4,3.2-3.2V3.8c0-1.8-1.4-3.2-3.2-3.2"/>
        <path class="cls-9" d="M11.3,8.4c-.3-.9-.8-1.7-1.4-2.2-.6-.5-1.3-.9-2.1-1.1-.8-.2-1.7-.3-2.6-.3s-2.5,0-2.5,0c-1.2,0-2.2,1-2.2,2.2v15.5c0,1.2,1,2.2,2.2,2.2,0,0,2.3,0,2.5,0,.9,0,1.8-.1,2.6-.3.8-.2,1.5-.6,2.1-1.1.6-.5,1.1-1.3,1.4-2.2.3-.9.5-2.1.5-3.5v-5.6c0-1.4-.2-2.6-.5-3.5"/>
        <path class="cls-9" d="M40.2,10.8c0,1.8-.5,3.2-1.5,4.1-1,1-2.4,1.4-4.2,1.4s-.7,0-1,0c-.4,0-.7,0-1,0-.3,0-.6,0-.9,0-.3,0-.5,0-.6,0-.2,0-.3,0-.4-.2,0,0-.1-.2-.1-.4V3.4c0-.2,0-.3.1-.4,0,0,.2-.1.4-.2.1,0,.3,0,.6,0,.3,0,.6,0,.9,0,.3,0,.7,0,1,0,.4,0,.7,0,1,0,1.8,0,3.2.5,4.2,1.4,1,1,1.5,2.3,1.5,4.1v2.7ZM37.7,8.2c0-.7,0-1.2-.2-1.7-.2-.4-.4-.8-.7-1.1-.3-.3-.6-.4-1-.5-.4-.1-.8-.2-1.3-.2s-.6,0-.9,0c-.2,0-.5,0-.7,0v9.4c.2,0,.4,0,.7,0,.2,0,.5,0,.9,0s.9,0,1.3-.2c.4-.1.7-.3,1-.5.3-.3.5-.6.7-1.1.2-.4.2-1,.2-1.7v-2.7Z"/>
        <path class="cls-9" d="M49.9,16c0,0-.1,0-.3.1-.1,0-.3,0-.5,0-.2,0-.4,0-.7,0-.3,0-.6,0-.9,0-.4,0-.8,0-1.4,0s-1.1,0-1.7-.1c-.5,0-1-.3-1.3-.6-.4-.3-.7-.6-.9-1.1-.2-.5-.3-1.1-.3-1.9v-6.3c0-.8.1-1.4.3-1.9.2-.5.5-.9.9-1.1.4-.3.8-.5,1.3-.6.5,0,1.1-.1,1.7-.1s1,0,1.4,0c.4,0,.7,0,.9,0,.3,0,.5,0,.7,0,.2,0,.3,0,.5,0,.1,0,.2,0,.3.1,0,0,0,.1,0,.3v1.2c0,0,0,.2-.1.3,0,0-.2.1-.3.1h-3.7c-.5,0-.9.1-1.1.3-.2.2-.3.6-.3,1.2v2h4.9c0,0,.2,0,.3.1,0,0,.1.2.1.3v1.3c0,0,0,.2-.1.3,0,0-.2.1-.3.1h-4.9v2.3c0,.6.1,1,.3,1.2.2.2.6.3,1.1.3h3.7c0,0,.2,0,.3.1,0,0,.1.2.1.3v1.2c0,.1,0,.2,0,.3"/>
        <path class="cls-9" d="M61.9,15.9c0,0,0,.2,0,.2,0,0-.1,0-.2,0h-1.9c0,0-.2,0-.2,0,0,0-.1-.1-.1-.2l-.8-3.4h-4.2l-.8,3.4c0,0,0,.2-.1.2,0,0-.1,0-.2,0h-1.9c0,0-.2,0-.2,0,0,0,0-.1,0-.2s0,0,0,0c0,0,0,0,0,0l3-11.4c.1-.4.3-.8.5-1,.2-.2.4-.4.7-.6.2-.1.5-.2.7-.2.2,0,.5,0,.7,0s.4,0,.7,0c.2,0,.5.1.7.2.2.1.5.3.7.6.2.2.4.6.5,1l3,11.4s0,0,0,0c0,0,0,0,0,0M56.7,5c0-.1,0-.2,0-.2,0,0-.1,0-.2,0s-.2,0-.2,0c0,0,0,.1,0,.2l-1.3,5.4h3.2l-1.3-5.4Z"/>
        <path class="cls-9" d="M70.7,16c0,0-.1,0-.3.1-.1,0-.3,0-.6,0-.2,0-.5,0-.8,0-.3,0-.6,0-.9,0-.3,0-.6,0-.8,0-.6,0-1.1,0-1.7-.1-.5,0-1-.3-1.3-.6-.4-.3-.7-.6-.9-1.1-.2-.5-.3-1.1-.3-1.9V3.1c0,0,0-.2.1-.3,0,0,.2-.1.3-.1h1.8c0,0,.2,0,.3.1,0,0,.1.2.1.3v9.6c0,.6.1,1,.3,1.2.2.2.6.3,1.1.3h3.3c0,0,.2,0,.3.1,0,0,.1.2.1.3v1.2c0,.1,0,.2,0,.3"/>
        <path class="cls-9" d="M79.9,16c0,0-.1,0-.3.1-.1,0-.3,0-.5,0-.2,0-.4,0-.7,0-.3,0-.6,0-.9,0-.4,0-.8,0-1.4,0s-1.1,0-1.7-.1c-.5,0-1-.3-1.3-.6-.4-.3-.7-.6-.9-1.1-.2-.5-.3-1.1-.3-1.9v-6.3c0-.8.1-1.4.3-1.9.2-.5.5-.9.9-1.1.4-.3.8-.5,1.3-.6.5,0,1.1-.1,1.7-.1s1,0,1.4,0c.4,0,.7,0,.9,0,.3,0,.5,0,.7,0,.2,0,.3,0,.5,0,.1,0,.2,0,.3.1,0,0,0,.1,0,.3v1.2c0,0,0,.2-.1.3,0,0-.2.1-.3.1h-3.7c-.5,0-.9.1-1.1.3-.2.2-.3.6-.3,1.2v2h4.9c0,0,.2,0,.3.1,0,0,.1.2.1.3v1.3c0,0,0,.2-.1.3,0,0-.2.1-.3.1h-4.9v2.3c0,.6.1,1,.3,1.2.2.2.6.3,1.1.3h3.7c0,0,.2,0,.3.1,0,0,.1.2.1.3v1.2c0,.1,0,.2,0,.3"/>
        <path class="cls-9" d="M91.6,16c0,.1,0,.2-.2.2h-2.2c0,0-.2,0-.2-.1,0,0,0-.2-.1-.3l-2.6-4.8h-.3c-.2,0-.5,0-.8,0-.3,0-.6,0-.8,0v4.9c0,0,0,.2-.1.3,0,0-.1.1-.2.1h-1.8c0,0-.2,0-.3-.1,0,0-.1-.2-.1-.3V3.4c0-.2,0-.3.2-.4.1,0,.2-.1.4-.2.5,0,1-.1,1.6-.2.6,0,1.3,0,1.9,0s1.4,0,2,.2c.6.1,1.2.4,1.7.7.5.3.9.7,1.1,1.3.3.5.4,1.2.4,2v.2c0,1-.2,1.8-.7,2.4-.4.6-1,1.1-1.8,1.3l2.9,5.3s0,0,0,.1M88.7,6.7c0-.7-.2-1.2-.7-1.5-.5-.3-1.1-.5-2-.5s-.2,0-.4,0c-.2,0-.3,0-.5,0-.2,0-.3,0-.4,0-.1,0-.3,0-.3,0v4.1c0,0,.2,0,.3,0,.2,0,.3,0,.5,0,.2,0,.3,0,.5,0,.2,0,.3,0,.3,0,.9,0,1.6-.2,2.1-.5.4-.3.7-.9.7-1.7v-.2Z"/>
        <path class="cls-6" d="M105.3,12.6c0,.5,0,.9-.2,1.4-.2.5-.4.9-.8,1.2-.4.4-.9.6-1.5.9-.6.2-1.4.3-2.3.3s-1.3,0-1.8,0c-.5,0-1-.1-1.4-.2,0,0-.2,0-.2-.1,0,0,0-.1,0-.2v-1.3c0,0,0-.2,0-.2,0,0,.1-.1.2-.1h0c.2,0,.4,0,.7,0,.3,0,.6,0,.9,0,.3,0,.6,0,.9,0,.3,0,.5,0,.7,0,.8,0,1.4-.1,1.7-.4.3-.3.4-.7.4-1.2s0-.3,0-.5c0-.1-.1-.3-.3-.4-.1-.1-.3-.3-.5-.4-.2-.1-.4-.3-.7-.5l-2.4-1.4c-.4-.3-.8-.5-1-.8-.3-.3-.5-.5-.7-.8-.2-.3-.3-.6-.3-.9,0-.3-.1-.6-.1-.9,0-.5,0-1,.2-1.4.2-.4.4-.8.8-1.1.4-.3.8-.5,1.4-.7.6-.2,1.3-.3,2.1-.3s.6,0,1,0c.3,0,.7,0,1,0,.3,0,.6,0,.9.1.3,0,.5,0,.6.1,0,0,.2,0,.2.1,0,0,0,.1,0,.2v1.3c0,0,0,.2,0,.2,0,0-.1,0-.2,0h0c-.6,0-1.2-.1-1.8-.1-.6,0-1.2,0-1.8,0s-1.2.1-1.5.3c-.3.2-.4.5-.4,1s0,.3,0,.4c0,.1.1.3.2.4.1.1.3.3.5.4.2.1.4.3.7.4l2.2,1.2c.5.3.9.6,1.2.8.3.3.6.6.8.9.2.3.3.6.4.9,0,.3.1.7.1,1"/>
        <path class="cls-6" d="M117,16.1c0,0-.2.1-.3.1h-1.8c0,0-.2,0-.3-.1,0,0-.1-.2-.1-.3v-5.6h-5.2v5.6c0,0,0,.2-.1.3,0,0-.2.1-.3.1h-1.8c0,0-.2,0-.3-.1,0,0-.1-.2-.1-.3V3.1c0,0,0-.2.1-.2,0,0,.2-.1.3-.1h1.8c0,0,.2,0,.3.1,0,0,.1.1.1.2v5h5.2V3.1c0,0,0-.2.1-.2,0,0,.2-.1.3-.1h1.8c0,0,.2,0,.3.1,0,0,.1.1.1.2v12.8c0,0,0,.2-.1.3"/>
        <path class="cls-6" d="M129.3,10.7c0,1-.1,1.9-.4,2.6-.3.7-.6,1.3-1.1,1.8-.5.5-1,.8-1.6,1-.6.2-1.3.3-2.1.3s-1.4-.1-2.1-.3c-.6-.2-1.2-.6-1.6-1-.5-.5-.8-1-1.1-1.8-.3-.7-.4-1.6-.4-2.6v-2.5c0-1,.1-1.8.4-2.6.3-.7.6-1.3,1.1-1.8.5-.5,1-.8,1.6-1,.6-.2,1.3-.3,2.1-.3s1.4.1,2.1.3c.6.2,1.2.6,1.6,1,.5.5.8,1,1.1,1.8.3.7.4,1.6.4,2.6v2.5ZM126.8,8.3c0-1.2-.2-2.1-.6-2.6-.4-.6-1.1-.8-2-.8s-1.6.3-2,.8c-.4.6-.6,1.4-.6,2.6v2.5c0,1.2.2,2.1.6,2.6.4.5,1.1.8,2,.8s1.6-.3,2-.8c.4-.6.6-1.4.6-2.6v-2.5Z"/>
        <path class="cls-6" d="M140.5,7c0,.8-.1,1.5-.4,2-.3.5-.7,1-1.1,1.3s-1,.6-1.7.7c-.6.1-1.3.2-2,.2s-.5,0-.8,0c-.3,0-.6,0-.8,0v4.7c0,0,0,.2-.1.3,0,0-.1.1-.2.1h-1.8c0,0-.2,0-.3-.1,0,0-.1-.2-.1-.3V3.4c0-.2,0-.3.2-.4.1,0,.2-.1.4-.2.5,0,1-.1,1.6-.2.6,0,1.3,0,1.9,0s1.4,0,2,.2c.6.1,1.2.4,1.7.7.5.3.9.8,1.1,1.3.3.5.4,1.2.4,2v.2ZM138,6.8c0-.8-.2-1.3-.7-1.6-.5-.3-1.1-.5-2-.5s-.2,0-.4,0c-.2,0-.3,0-.5,0-.2,0-.3,0-.4,0-.1,0-.3,0-.3,0v4.3c0,0,.2,0,.3,0,.2,0,.3,0,.5,0,.2,0,.3,0,.5,0,.2,0,.3,0,.3,0,1,0,1.7-.2,2.1-.5.4-.4.6-.9.6-1.6v-.2Z"/>
        <path class="cls-9" d="M32.2,27.2c-.7,0-1.4,0-1.6,0-.1,0-.2,0-.2-.2v-6.2c0-.1,0-.2.2-.2.3,0,1,0,1.6,0,1.7,0,2.7.9,2.7,2.8v1.2c0,1.9-1.1,2.8-2.7,2.8M34.1,23.1c0-1.6-.8-2.1-1.9-2.1s-.7,0-1,0v5.4c.3,0,.6,0,1,0,1.1,0,1.9-.5,1.9-2.1v-1.2Z"/>
        <path class="cls-9" d="M36.6,27.1h-.5c0,0-.2,0-.2-.2v-6.4c0,0,0-.2.2-.2h.5c0,0,.2,0,.2.2v6.4c0,0,0,.2-.2.2"/>
        <path class="cls-9" d="M39.6,27.2c-.6,0-1.1,0-1.5-.1-.2,0-.2,0-.2-.2v-.4c0-.1,0-.1.2-.1h0c.4,0,1.1,0,1.5,0,1.1,0,1.4-.4,1.4-1.1s-.3-.7-1.1-1.2l-.9-.5c-.8-.5-1.2-1-1.2-1.7,0-1.1.8-1.6,2.2-1.6s1.2,0,1.6.1c0,0,.2,0,.2.2v.4c0,0,0,.1-.2.1h0c-.4,0-1,0-1.6,0-.9,0-1.3.2-1.3.9s.3.7,1,1.1l.8.5c1,.6,1.4,1.1,1.4,1.8s-.5,1.8-2.2,1.8"/>
        <path class="cls-9" d="M46.8,21.1h-1.8v5.8c0,0,0,.2-.2.2h-.5c0,0-.2,0-.2-.2v-5.8h-1.8c0,0-.2,0-.2-.1v-.4c0,0,0-.2.2-.2h4.3c0,0,.2,0,.2.2v.4c0,0,0,.1-.2.1"/>
        <path class="cls-9" d="M52.2,27.1h-.6c-.1,0-.2,0-.2-.1l-1.6-2.7h-.2c-.3,0-.5,0-1,0v2.7c0,0,0,.2-.2.2h-.5c0,0-.2,0-.2-.2v-6.3c0-.1,0-.2.2-.2.4,0,1.1,0,1.6,0,1.4,0,2.5.5,2.5,1.9h0c0,1.1-.6,1.7-1.4,1.9l1.6,2.7s0,0,0,0c0,0,0,.1-.1.1M51.3,22.3c0-.9-.6-1.2-1.7-1.2s-.8,0-1,0v2.5c.4,0,.8,0,1,0,1.1,0,1.7-.3,1.7-1.3h0Z"/>
        <path class="cls-9" d="M53.9,27.1h-.5c0,0-.2,0-.2-.2v-6.4c0,0,0-.2.2-.2h.5c0,0,.2,0,.2.2v6.4c0,0,0,.2-.2.2"/>
        <path class="cls-9" d="M57.1,27.2c-.6,0-1.1,0-1.5,0-.2,0-.3-.1-.3-.3v-6c0-.2,0-.3.3-.3.3,0,.9,0,1.4,0,1.4,0,2.6.4,2.6,1.7h0c0,.8-.4,1.3-1,1.6.6.2,1,.8,1,1.5v.2c0,1.5-1.2,1.9-2.6,1.9M58.8,22.1c0-.9-.7-1-1.8-1s-.6,0-.9,0v2.2h1.4c1,0,1.3-.5,1.3-1.1h0ZM58.9,25.1c0-.6-.3-1.1-1.4-1.1h-1.4v2.5c.3,0,.6,0,.9,0,1.1,0,1.8-.2,1.8-1.2v-.2Z"/>
        <path class="cls-9" d="M62.9,27.2c-1.5,0-2.3-.8-2.3-2.5v-4.1c0,0,0-.2.2-.2h.5c0,0,.2,0,.2.2v4.1c0,1.2.4,1.8,1.5,1.8s1.5-.6,1.5-1.8v-4.1c0,0,0-.2.2-.2h.5c0,0,.2,0,.2.2v4.1c0,1.7-.8,2.5-2.3,2.5"/>
        <path class="cls-9" d="M67.1,27.1h-.5c0,0-.2,0-.2-.2v-6.4c0,0,0-.2.2-.2h.5c0,0,.2,0,.2.2v6.4c0,0,0,.2-.2.2"/>
        <path class="cls-9" d="M72.2,27.1c-.4,0-.7.1-1.5.1-1.1,0-2.4-.6-2.4-2.8v-1.3c0-2.2,1.3-2.8,2.4-2.8s1.1,0,1.5.1c0,0,.1,0,.1.1v.5c0,0,0,.1-.1.1h0c-.3,0-1,0-1.5,0-.9,0-1.6.5-1.6,2.1v1.3c0,1.5.7,2.1,1.6,2.1s1.2,0,1.5,0h0c0,0,.1,0,.1.1v.4c0,.1,0,.2-.2.2M71.2,27.5l-1,1.1c0,0-.1.1-.2.1h-.5c0,0,0,0,0,0s0,0,0,0l.9-1.1c0-.1.1-.1.2-.1h.6c0,0,0,0,0,0s0,0,0,0"/>
        <path class="cls-9" d="M77.7,27.1h-.5c0,0-.1,0-.2-.1l-.6-2.1h-2.3l-.6,2.1c0,0,0,.1-.2.1h-.5c0,0-.2,0-.2-.1s0,0,0,0l1.7-5.9c.2-.6.6-.7.9-.7s.8.1.9.7l1.7,5.9s0,0,0,0c0,0,0,.1-.2.1M76,20c-.2,0-.4,0-.6-.2l-.6-.4c-.2-.2-.3-.2-.4-.2-.2,0-.3.1-.3.4v.2c0,0,0,.2-.2.2h-.3c0,0-.1,0-.1-.2v-.2c0-.6.3-1,.9-1s.4,0,.5.2l.6.5c0,0,.2.1.3.1.2,0,.3,0,.3-.4v-.2c0,0,0-.2.2-.2h.3c0,0,.1,0,.1.2v.2c0,.6-.2.9-.9.9M75.4,21.2c0-.1,0-.2-.2-.2s-.2,0-.2.2l-.8,3h2l-.8-3Z"/>
        <path class="cls-9" d="M80.8,27.2c-1.4,0-2.5-.8-2.5-2.8v-1.2c0-2,1-2.8,2.5-2.8s2.4.8,2.4,2.8v1.2c0,2-1,2.8-2.4,2.8M82.5,23.2c0-1.5-.6-2.1-1.6-2.1s-1.6.6-1.6,2.1v1.2c0,1.5.6,2.1,1.6,2.1s1.6-.6,1.6-2.1v-1.2Z"/>
        <path class="cls-9" d="M90,27.1c-.4,0-.7.1-1.5.1-1.1,0-2.4-.6-2.4-2.8v-1.3c0-2.2,1.3-2.8,2.4-2.8s1.1,0,1.5.1c0,0,.1,0,.1.1v.5c0,0,0,.1-.1.1h0c-.3,0-1,0-1.5,0-.9,0-1.6.5-1.6,2.1v1.3c0,1.5.7,2.1,1.6,2.1s1.2,0,1.5,0h0c0,0,.1,0,.1.1v.4c0,.1,0,.2-.2.2"/>
        <path class="cls-9" d="M93.2,27.2c-1.4,0-2.5-.8-2.5-2.8v-1.2c0-2,1-2.8,2.5-2.8s2.4.8,2.4,2.8v1.2c0,2-1,2.8-2.4,2.8M94.8,23.2c0-1.5-.6-2.1-1.6-2.1s-1.6.6-1.6,2.1v1.2c0,1.5.6,2.1,1.6,2.1s1.6-.6,1.6-2.1v-1.2Z"/>
        <path class="cls-9" d="M101.9,27.1h-.4c-.1,0-.2,0-.2-.2v-5.4s0,0,0,0,0,0,0,0l-1.3,2.7c0,.2-.2.3-.4.3h-.4c-.2,0-.3,0-.4-.3l-1.3-2.7s0,0,0,0,0,0,0,0v5.4c0,0,0,.2-.2.2h-.4c0,0-.2,0-.2-.2v-6.3c0-.1.1-.3.3-.3h.6c.2,0,.2,0,.3.2l1.5,3.1c0,0,0,0,.1,0s0,0,.1,0l1.5-3.1c0-.1.1-.2.3-.2h.6c.1,0,.3.1.3.3v6.3c0,0,0,.2-.2.2"/>
        <path class="cls-9" d="M106.8,27.2c-.6,0-1.1,0-1.5-.1-.2,0-.2,0-.2-.2v-.4c0-.1,0-.1.2-.1h0c.4,0,1.1,0,1.5,0,1.1,0,1.4-.4,1.4-1.1s-.3-.7-1.1-1.2l-.9-.5c-.8-.5-1.2-1-1.2-1.7,0-1.1.8-1.6,2.2-1.6s1.2,0,1.6.1c0,0,.2,0,.2.2v.4c0,0,0,.1-.2.1h0c-.4,0-1,0-1.6,0-.9,0-1.3.2-1.3.9s.3.7,1,1.1l.8.5c1,.6,1.4,1.1,1.4,1.8s-.5,1.8-2.2,1.8"/>
        <path class="cls-9" d="M112.2,27.2c-1.4,0-2.5-.8-2.5-2.8v-1.2c0-2,1-2.8,2.5-2.8s2.4.8,2.4,2.8v1.2c0,2-1,2.8-2.4,2.8M113.8,23.2c0-1.5-.6-2.1-1.6-2.1s-1.6.6-1.6,2.1v1.2c0,1.5.6,2.1,1.6,2.1s1.6-.6,1.6-2.1v-1.2Z"/>
        <path class="cls-9" d="M119.3,27.1c-.2,0-.9,0-1.8,0s-1.9-.2-1.9-1.7v-4.9c0-.1,0-.2.2-.2h.5c0,0,.2,0,.2.2v4.9c0,.7.2.9,1.1.9h1.7c0,0,0,0,0,.1v.4c0,0,0,.1,0,.1"/>
        <path class="cls-9" d="M122.2,27.2c-1.5,0-2.3-.8-2.3-2.5v-4.1c0,0,0-.2.2-.2h.5c0,0,.2,0,.2.2v4.1c0,1.2.4,1.8,1.5,1.8s1.5-.6,1.5-1.8v-4.1c0,0,0-.2.2-.2h.5c0,0,.2,0,.2.2v4.1c0,1.7-.8,2.5-2.3,2.5"/>
        <path class="cls-9" d="M129.4,27.1c-.4,0-.7.1-1.5.1-1.1,0-2.4-.6-2.4-2.8v-1.3c0-2.2,1.3-2.8,2.4-2.8s1.1,0,1.5.1c0,0,.1,0,.1.1v.5c0,0,0,.1-.1.1h0c-.3,0-1,0-1.5,0-.9,0-1.6.5-1.6,2.1v1.3c0,1.5.7,2.1,1.6,2.1s1.2,0,1.5,0h0c0,0,.1,0,.1.1v.4c0,.1,0,.2-.2.2M128.4,27.5l-1,1.1c0,0-.1.1-.2.1h-.5c0,0,0,0,0,0s0,0,0,0l.9-1.1c0-.1.1-.1.2-.1h.6c0,0,0,0,0,0s0,0,0,0"/>
        <path class="cls-9" d="M134.9,27.1h-.5c0,0-.1,0-.2-.1l-.6-2.1h-2.3l-.6,2.1c0,0,0,.1-.2.1h-.5c0,0-.2,0-.2-.1s0,0,0,0l1.7-5.9c.2-.6.6-.7.9-.7s.8.1.9.7l1.7,5.9s0,0,0,0c0,0,0,.1-.2.1M133.3,20c-.2,0-.4,0-.6-.2l-.6-.4c-.2-.2-.3-.2-.4-.2-.2,0-.3.1-.3.4v.2c0,0,0,.2-.2.2h-.3c0,0-.1,0-.1-.2v-.2c0-.6.3-1,.9-1s.4,0,.5.2l.6.5c0,0,.2.1.3.1.2,0,.3,0,.3-.4v-.2c0,0,0-.2.2-.2h.3c0,0,.1,0,.1.2v.2c0,.6-.2.9-.9.9M132.7,21.2c0-.1,0-.2-.2-.2s-.2,0-.2.2l-.8,3h2l-.8-3Z"/>
        <path class="cls-9" d="M138.1,27.2c-1.4,0-2.5-.8-2.5-2.8v-1.2c0-2,1-2.8,2.5-2.8s2.4.8,2.4,2.8v1.2c0,2-1,2.8-2.4,2.8M139.7,23.2c0-1.5-.6-2.1-1.6-2.1s-1.6.6-1.6,2.1v1.2c0,1.5.6,2.1,1.6,2.1s1.6-.6,1.6-2.1v-1.2Z"/>
      </g>
    </g>
  </g>
</svg>