<svg id="Layer_1" data-name="Layer 1" xmlns="http://www.w3.org/2000/svg" viewBox="0 0 90.86 32.55"><defs><style>.cls-1{fill:#fff;}</style></defs><path class="cls-1" d="M27.88,34.08a1.4,1.4,0,0,1-.57-.3l.21-.5a2.05,2.05,0,0,0,.51.28,1.8,1.8,0,0,0,.6.1,1,1,0,0,0,.56-.12.37.37,0,0,0,.19-.33.33.33,0,0,0-.1-.24.72.72,0,0,0-.27-.16l-.43-.12A3.87,3.87,0,0,1,28,32.5a1,1,0,0,1-.41-.29.85.85,0,0,1-.17-.54,1,1,0,0,1,.15-.53,1.08,1.08,0,0,1,.46-.37,1.81,1.81,0,0,1,.74-.14,2.49,2.49,0,0,1,.61.08,1.5,1.5,0,0,1,.51.23l-.19.5a2.11,2.11,0,0,0-.46-.21,2,2,0,0,0-.47-.06,1,1,0,0,0-.55.12.41.41,0,0,0-.18.35.31.31,0,0,0,.1.24.87.87,0,0,0,.27.15l.43.12a3.72,3.72,0,0,1,.61.19,1,1,0,0,1,.41.29.76.76,0,0,1,.17.54,1,1,0,0,1-.15.52,1,1,0,0,1-.46.37,1.82,1.82,0,0,1-.75.14A2.36,2.36,0,0,1,27.88,34.08Z" transform="translate(-3.55 -2.72)"/><path class="cls-1" d="M33.37,33.61v.54H30.85V30.68h2.46v.54H31.48v.9H33.1v.53H31.48v1Z" transform="translate(-3.55 -2.72)"/><path class="cls-1" d="M36.59,32.37h.59v1.39a1.73,1.73,0,0,1-.6.32,2.16,2.16,0,0,1-.71.12,1.89,1.89,0,0,1-.93-.23,1.74,1.74,0,0,1-.65-.64,1.77,1.77,0,0,1-.23-.92,1.74,1.74,0,0,1,.23-.91,1.67,1.67,0,0,1,.65-.64,2,2,0,0,1,.94-.23,2.06,2.06,0,0,1,.76.14,1.55,1.55,0,0,1,.58.42l-.39.4a1.26,1.26,0,0,0-.93-.4,1.34,1.34,0,0,0-.63.16,1,1,0,0,0-.43.43,1.31,1.31,0,0,0-.16.63,1.34,1.34,0,0,0,.16.63,1.11,1.11,0,0,0,.43.43,1.23,1.23,0,0,0,.63.16,1.31,1.31,0,0,0,.69-.18Z" transform="translate(-3.55 -2.72)"/><path class="cls-1" d="M38.6,33.79a1.59,1.59,0,0,1-.39-1.15v-2h.63v1.93c0,.68.28,1,.85,1s.85-.34.85-1V30.68h.62v2a1.59,1.59,0,0,1-.39,1.15,1.64,1.64,0,0,1-2.17,0Z" transform="translate(-3.55 -2.72)"/><path class="cls-1" d="M44.47,34.15l-.69-1H42.9v1h-.63V30.68h1.38a1.82,1.82,0,0,1,.77.15,1.13,1.13,0,0,1,.49.42,1.21,1.21,0,0,1,.18.66,1.26,1.26,0,0,1-.19.68,1.07,1.07,0,0,1-.53.42l.77,1.14Zm-.22-2.75a1,1,0,0,0-.62-.18H42.9v1.39h.73a1,1,0,0,0,.62-.18.66.66,0,0,0,.21-.52A.64.64,0,0,0,44.25,31.4Z" transform="translate(-3.55 -2.72)"/><path class="cls-1" d="M48.2,33.34H46.52l-.33.81h-.64l1.51-3.47h.61l1.52,3.47h-.65Zm-.2-.5-.64-1.52-.63,1.52Z" transform="translate(-3.55 -2.72)"/><path class="cls-1" d="M52.85,30.68v3.47h-.52L50.48,31.8v2.35h-.62V30.68h.51L52.23,33V30.68Z" transform="translate(-3.55 -2.72)"/><path class="cls-1" d="M54.62,34a1.78,1.78,0,0,1-.64-.64,1.87,1.87,0,0,1-.23-.92A1.84,1.84,0,0,1,54,31.5a1.74,1.74,0,0,1,.65-.64,1.87,1.87,0,0,1,.92-.23,1.83,1.83,0,0,1,.75.15,1.55,1.55,0,0,1,.58.43l-.4.39a1.19,1.19,0,0,0-.9-.41,1.27,1.27,0,0,0-.62.16,1.11,1.11,0,0,0-.43.43,1.33,1.33,0,0,0-.15.63,1.28,1.28,0,0,0,.15.63,1.14,1.14,0,0,0,.43.44,1.26,1.26,0,0,0,.62.15,1.16,1.16,0,0,0,.9-.41l.4.4a1.55,1.55,0,0,1-.58.43,1.87,1.87,0,0,1-.76.15A1.9,1.9,0,0,1,54.62,34Zm.26,1.2.11-.29a.69.69,0,0,0,.32.08c.17,0,.26-.06.26-.18a.14.14,0,0,0-.06-.12.37.37,0,0,0-.2,0h-.15l.13-.51h.33l-.07.28a.5.5,0,0,1,.32.14.37.37,0,0,1,.1.28.41.41,0,0,1-.18.34.8.8,0,0,1-.47.13A.87.87,0,0,1,54.88,35.17Z" transform="translate(-3.55 -2.72)"/><path class="cls-1" d="M59.83,33.34H58.15l-.33.81h-.65l1.51-3.47h.62l1.52,3.47h-.66Zm-.21-.5L59,31.32l-.63,1.52Z" transform="translate(-3.55 -2.72)"/><path class="cls-1" d="M65.57,33.61v.54H63.05V30.68H65.5v.54H63.67v.9H65.3v.53H63.67v1Z" transform="translate(-3.55 -2.72)"/><path class="cls-1" d="M68.36,34.08a1.4,1.4,0,0,1-.57-.3l.21-.5a2.05,2.05,0,0,0,.51.28,1.8,1.8,0,0,0,.6.1,1,1,0,0,0,.56-.12.37.37,0,0,0,.19-.33.33.33,0,0,0-.1-.24.72.72,0,0,0-.27-.16l-.43-.12a3.57,3.57,0,0,1-.62-.19,1,1,0,0,1-.41-.29.85.85,0,0,1-.17-.54,1,1,0,0,1,.15-.53,1,1,0,0,1,.46-.37,1.81,1.81,0,0,1,.74-.14,2.49,2.49,0,0,1,.61.08,1.5,1.5,0,0,1,.51.23l-.19.5a2.11,2.11,0,0,0-.46-.21,2,2,0,0,0-.47-.06,1,1,0,0,0-.55.12.41.41,0,0,0-.18.35.31.31,0,0,0,.1.24.87.87,0,0,0,.27.15l.43.12a3.72,3.72,0,0,1,.61.19,1,1,0,0,1,.41.29.76.76,0,0,1,.17.54,1,1,0,0,1-.15.52,1,1,0,0,1-.46.37,1.82,1.82,0,0,1-.75.14A2.36,2.36,0,0,1,68.36,34.08Z" transform="translate(-3.55 -2.72)"/><path class="cls-1" d="M71.33,30.68H72v3.47h-.63Z" transform="translate(-3.55 -2.72)"/><path class="cls-1" d="M73.4,34.08a1.38,1.38,0,0,1-.58-.3l.22-.5a1.72,1.72,0,0,0,1.11.38,1.06,1.06,0,0,0,.56-.12.38.38,0,0,0,.18-.33.3.3,0,0,0-.1-.24.76.76,0,0,0-.26-.16l-.44-.12a3.87,3.87,0,0,1-.62-.19,1.06,1.06,0,0,1-.41-.29.85.85,0,0,1-.17-.54,1,1,0,0,1,.15-.53,1.14,1.14,0,0,1,.46-.37,1.82,1.82,0,0,1,.75-.14,2.47,2.47,0,0,1,.6.08,1.64,1.64,0,0,1,.52.23l-.2.5a2.11,2.11,0,0,0-.46-.21,2,2,0,0,0-.47-.06,1,1,0,0,0-.55.12.41.41,0,0,0-.18.35.32.32,0,0,0,.11.24.71.71,0,0,0,.26.15l.43.12a3.72,3.72,0,0,1,.61.19,1,1,0,0,1,.41.29.77.77,0,0,1,.18.54,1,1,0,0,1-.16.52,1,1,0,0,1-.45.37,1.89,1.89,0,0,1-.75.14A2.36,2.36,0,0,1,73.4,34.08Z" transform="translate(-3.55 -2.72)"/><path class="cls-1" d="M77,31.22H75.88v-.54h2.86v.54H77.62v2.93H77Z" transform="translate(-3.55 -2.72)"/><path class="cls-1" d="M82,33.61v.54H79.45V30.68H81.9v.54H80.07v.9h1.62v.53H80.07v1Z" transform="translate(-3.55 -2.72)"/><path class="cls-1" d="M86,34.15v-2.3l-1.11,1.9H84.6l-1.1-1.87v2.27h-.59V30.68h.51L84.75,33l1.31-2.3h.52v3.47Z" transform="translate(-3.55 -2.72)"/><path class="cls-1" d="M89.91,33.34H88.23l-.33.81h-.64l1.51-3.47h.61l1.52,3.47h-.65Zm-.21-.5-.63-1.52-.63,1.52Z" transform="translate(-3.55 -2.72)"/><path class="cls-1" d="M91.86,34.08a1.51,1.51,0,0,1-.58-.3l.22-.5a2.05,2.05,0,0,0,.51.28,1.8,1.8,0,0,0,.6.1,1,1,0,0,0,.56-.12.38.38,0,0,0,.18-.33.3.3,0,0,0-.1-.24.76.76,0,0,0-.26-.16l-.43-.12a3.32,3.32,0,0,1-.62-.19,1,1,0,0,1-.41-.29.8.8,0,0,1-.17-.54,1,1,0,0,1,.15-.53,1,1,0,0,1,.45-.37,1.89,1.89,0,0,1,.75-.14,2.49,2.49,0,0,1,.61.08,1.59,1.59,0,0,1,.51.23l-.2.5a1.92,1.92,0,0,0-.46-.21,1.88,1.88,0,0,0-.46-.06,1,1,0,0,0-.55.12.41.41,0,0,0-.18.35.31.31,0,0,0,.1.24.93.93,0,0,0,.26.15l.43.12a3.87,3.87,0,0,1,.62.19,1.06,1.06,0,0,1,.41.29.81.81,0,0,1,.17.54,1,1,0,0,1-.15.52,1.08,1.08,0,0,1-.46.37,1.89,1.89,0,0,1-.75.14A2.36,2.36,0,0,1,91.86,34.08Z" transform="translate(-3.55 -2.72)"/><path class="cls-1" d="M62.29,26.31h-4.5l-1.68-4.83H46.92L45,26.31H40.65L49.32,2.72H54L51.53,9l-3.05,8.1h6.07l-1.46-3.83,2.2-5.93Z" transform="translate(-3.55 -2.72)"/><path class="cls-1" d="M68.32,16.65v9.66H64V2.72H75.21V7.11H68.32v5.27" transform="translate(-3.55 -2.72)"/><path class="cls-1" d="M87.81,26.31H83.53V16.06L77,2.72h4.6l.84,1.65,5.42,11.25Zm1.88-13.9L87.39,7.8,89.9,2.72h4.51Z" transform="translate(-3.55 -2.72)"/><path class="cls-1" d="M70.52,12.3" transform="translate(-3.55 -2.72)"/><path class="cls-1" d="M31.09,14.49l3.18-2.93L33,10.38c-.52-.46-.89-.8-1.1-1a2.09,2.09,0,0,1-.31-1,1.26,1.26,0,0,1,.51-1,1.83,1.83,0,0,1,1.36-.42c1.11,0,2.18.71,3.22,2.11L39.76,6.1a11.85,11.85,0,0,0-3.1-2.54,6.59,6.59,0,0,0-3.25-.84A6.36,6.36,0,0,0,29,4.39a5.43,5.43,0,0,0-1.79,4.05,5.65,5.65,0,0,0,1.16,3.22A18.39,18.39,0,0,0,31.09,14.49Z" transform="translate(-3.55 -2.72)"/><path class="cls-1" d="M37.7,14.52l-.45-.4c-.24-.22-.54-.49-.89-.79l-3.2,3a21.28,21.28,0,0,1,2.45,2.25,2.9,2.9,0,0,1,.52,1.56,2,2,0,0,1-.73,1.47,2.94,2.94,0,0,1-1.88.63q-1.89,0-3.43-2.63l-2.95,3c1.6,2.49,3.51,3.74,6.27,3.74a7,7,0,0,0,5-1.78,6,6,0,0,0,1.88-4.6A7,7,0,0,0,38,14.78Z" transform="translate(-3.55 -2.72)"/><rect class="cls-1" x="66.73" y="9.57" width="4.25" height="4.25"/><path class="cls-1" d="M22.19,14.52l-4.42,0H8C8,11.25,9.42,6.8,12.86,6.8h0C15.8,6.8,17.25,10,17.65,13h4.28c-.83-5.38-3.86-10.26-9-10.27h0c-5.68,0-9.31,5.87-9.31,11.8V24.66c0,5.86,9.32,9.68,9.32,9.68h0s9.32-3.82,9.32-9.68V14.52ZM12.88,27.74h0a2.65,2.65,0,0,1-2.68-2.61l1.23-2.19V19.27a1.43,1.43,0,0,1,1.45-1.41h0a1.43,1.43,0,0,1,1.45,1.41v3.67l1.23,2.19A2.65,2.65,0,0,1,12.88,27.74Z" transform="translate(-3.55 -2.72)"/></svg>