<?xml version="1.0" encoding="utf-8"?>
<!-- Generator: Adobe Illustrator 25.4.0, SVG Export Plug-In . SVG Version: 6.00 Build 0)  -->
<svg version="1.1" id="Layer_1" xmlns="http://www.w3.org/2000/svg" xmlns:xlink="http://www.w3.org/1999/xlink" x="0px" y="0px"
	 viewBox="0 0 179.3 38" style="enable-background:new 0 0 179.3 38;" xml:space="preserve">
<style type="text/css">
	.st0{fill:#ACBDAB;}
	.st1{fill:#335524;}
</style>
<g>
	<g>
		<g>
			<g>
				<path class="st0" d="M27.9,34.1c-0.2-0.1-0.4-0.2-0.6-0.3l0.2-0.5c0.1,0.1,0.3,0.2,0.5,0.3c0.2,0.1,0.4,0.1,0.6,0.1
					c0.2,0,0.4,0,0.6-0.1c0.1-0.1,0.2-0.2,0.2-0.3c0-0.1,0-0.2-0.1-0.2c-0.1-0.1-0.2-0.1-0.3-0.2c-0.1,0-0.2-0.1-0.4-0.1
					c-0.3-0.1-0.5-0.1-0.6-0.2c-0.2-0.1-0.3-0.2-0.4-0.3c-0.1-0.1-0.2-0.3-0.2-0.5c0-0.2,0.1-0.4,0.2-0.5c0.1-0.2,0.3-0.3,0.5-0.4
					c0.2-0.1,0.5-0.1,0.7-0.1c0.2,0,0.4,0,0.6,0.1c0.2,0.1,0.4,0.1,0.5,0.2l-0.2,0.5c-0.1-0.1-0.3-0.2-0.5-0.2
					c-0.2,0-0.3-0.1-0.5-0.1c-0.2,0-0.4,0-0.5,0.1c-0.1,0.1-0.2,0.2-0.2,0.3c0,0.1,0,0.2,0.1,0.2c0.1,0.1,0.2,0.1,0.3,0.1
					c0.1,0,0.2,0.1,0.4,0.1c0.2,0.1,0.5,0.1,0.6,0.2c0.2,0.1,0.3,0.2,0.4,0.3c0.1,0.1,0.2,0.3,0.2,0.5c0,0.2-0.1,0.4-0.2,0.5
					c-0.1,0.2-0.3,0.3-0.5,0.4s-0.5,0.1-0.7,0.1C28.4,34.2,28.1,34.2,27.9,34.1z"/>
				<path class="st0" d="M33.4,33.6v0.5h-2.5v-3.5h2.5v0.5h-1.8v0.9h1.6v0.5h-1.6v1H33.4z"/>
				<path class="st0" d="M36.6,32.4h0.6v1.4c-0.2,0.1-0.4,0.3-0.6,0.3c-0.2,0.1-0.5,0.1-0.7,0.1c-0.3,0-0.7-0.1-0.9-0.2
					s-0.5-0.4-0.6-0.6c-0.2-0.3-0.2-0.6-0.2-0.9s0.1-0.6,0.2-0.9c0.2-0.3,0.4-0.5,0.7-0.6c0.3-0.2,0.6-0.2,0.9-0.2
					c0.3,0,0.5,0,0.8,0.1c0.2,0.1,0.4,0.2,0.6,0.4l-0.4,0.4c-0.3-0.3-0.6-0.4-0.9-0.4c-0.2,0-0.4,0.1-0.6,0.2
					c-0.2,0.1-0.3,0.2-0.4,0.4c-0.1,0.2-0.2,0.4-0.2,0.6c0,0.2,0.1,0.4,0.2,0.6c0.1,0.2,0.2,0.3,0.4,0.4c0.2,0.1,0.4,0.2,0.6,0.2
					c0.3,0,0.5-0.1,0.7-0.2V32.4z"/>
				<path class="st0" d="M38.6,33.8c-0.3-0.3-0.4-0.7-0.4-1.2v-2h0.6v1.9c0,0.7,0.3,1,0.9,1c0.6,0,0.9-0.3,0.9-1v-1.9h0.6v2
					c0,0.5-0.1,0.9-0.4,1.2c-0.3,0.3-0.6,0.4-1.1,0.4C39.2,34.2,38.9,34.1,38.6,33.8z"/>
				<path class="st0" d="M44.5,34.1l-0.7-1c0,0-0.1,0-0.1,0h-0.8v1h-0.6v-3.5h1.4c0.3,0,0.5,0,0.8,0.1c0.2,0.1,0.4,0.2,0.5,0.4
					c0.1,0.2,0.2,0.4,0.2,0.7c0,0.3-0.1,0.5-0.2,0.7c-0.1,0.2-0.3,0.3-0.5,0.4l0.8,1.1H44.5z M44.2,31.4c-0.1-0.1-0.3-0.2-0.6-0.2
					h-0.7v1.4h0.7c0.3,0,0.5-0.1,0.6-0.2c0.1-0.1,0.2-0.3,0.2-0.5S44.4,31.5,44.2,31.4z"/>
				<path class="st0" d="M48.2,33.3h-1.7l-0.3,0.8h-0.6l1.5-3.5h0.6l1.5,3.5h-0.7L48.2,33.3z M48,32.8l-0.6-1.5l-0.6,1.5H48z"/>
				<path class="st0" d="M52.8,30.7v3.5h-0.5l-1.9-2.3v2.3h-0.6v-3.5h0.5l1.9,2.3v-2.3H52.8z"/>
				<path class="st0" d="M54.6,34c-0.3-0.2-0.5-0.4-0.6-0.6c-0.2-0.3-0.2-0.6-0.2-0.9s0.1-0.6,0.2-0.9c0.2-0.3,0.4-0.5,0.6-0.6
					c0.3-0.2,0.6-0.2,0.9-0.2c0.3,0,0.5,0,0.8,0.1s0.4,0.2,0.6,0.4l-0.4,0.4c-0.2-0.3-0.5-0.4-0.9-0.4c-0.2,0-0.4,0.1-0.6,0.2
					c-0.2,0.1-0.3,0.2-0.4,0.4c-0.1,0.2-0.2,0.4-0.2,0.6s0.1,0.4,0.2,0.6c0.1,0.2,0.2,0.3,0.4,0.4c0.2,0.1,0.4,0.2,0.6,0.2
					c0.4,0,0.7-0.1,0.9-0.4l0.4,0.4c-0.2,0.2-0.3,0.3-0.6,0.4c-0.2,0.1-0.5,0.1-0.8,0.1C55.2,34.2,54.9,34.1,54.6,34z M54.9,35.2
					l0.1-0.3c0.1,0.1,0.2,0.1,0.3,0.1c0.2,0,0.3-0.1,0.3-0.2c0,0,0-0.1-0.1-0.1c0,0-0.1,0-0.2,0h-0.1l0.1-0.5h0.3l-0.1,0.3
					c0.1,0,0.2,0.1,0.3,0.1c0.1,0.1,0.1,0.2,0.1,0.3c0,0.1-0.1,0.3-0.2,0.3c-0.1,0.1-0.3,0.1-0.5,0.1C55.1,35.3,55,35.2,54.9,35.2z"
					/>
				<path class="st0" d="M59.8,33.3h-1.7l-0.3,0.8h-0.6l1.5-3.5h0.6l1.5,3.5h-0.7L59.8,33.3z M59.6,32.8L59,31.3l-0.6,1.5H59.6z"/>
				<path class="st0" d="M65.6,33.6v0.5H63v-3.5h2.5v0.5h-1.8v0.9h1.6v0.5h-1.6v1H65.6z"/>
				<path class="st0" d="M68.4,34.1c-0.2-0.1-0.4-0.2-0.6-0.3l0.2-0.5c0.1,0.1,0.3,0.2,0.5,0.3c0.2,0.1,0.4,0.1,0.6,0.1
					c0.2,0,0.4,0,0.6-0.1c0.1-0.1,0.2-0.2,0.2-0.3c0-0.1,0-0.2-0.1-0.2c-0.1-0.1-0.2-0.1-0.3-0.2c-0.1,0-0.2-0.1-0.4-0.1
					c-0.3-0.1-0.5-0.1-0.6-0.2c-0.2-0.1-0.3-0.2-0.4-0.3c-0.1-0.1-0.2-0.3-0.2-0.5c0-0.2,0.1-0.4,0.2-0.5c0.1-0.2,0.3-0.3,0.5-0.4
					c0.2-0.1,0.5-0.1,0.7-0.1c0.2,0,0.4,0,0.6,0.1c0.2,0.1,0.4,0.1,0.5,0.2l-0.2,0.5c-0.1-0.1-0.3-0.2-0.5-0.2
					c-0.2,0-0.3-0.1-0.5-0.1c-0.2,0-0.4,0-0.5,0.1c-0.1,0.1-0.2,0.2-0.2,0.3c0,0.1,0,0.2,0.1,0.2c0.1,0.1,0.2,0.1,0.3,0.1
					c0.1,0,0.2,0.1,0.4,0.1c0.2,0.1,0.5,0.1,0.6,0.2c0.2,0.1,0.3,0.2,0.4,0.3c0.1,0.1,0.2,0.3,0.2,0.5c0,0.2-0.1,0.4-0.2,0.5
					c-0.1,0.2-0.3,0.3-0.5,0.4c-0.2,0.1-0.5,0.1-0.7,0.1C68.9,34.2,68.6,34.2,68.4,34.1z"/>
				<path class="st0" d="M71.3,30.7H72v3.5h-0.6V30.7z"/>
				<path class="st0" d="M73.4,34.1c-0.2-0.1-0.4-0.2-0.6-0.3l0.2-0.5c0.1,0.1,0.3,0.2,0.5,0.3c0.2,0.1,0.4,0.1,0.6,0.1
					c0.2,0,0.4,0,0.6-0.1c0.1-0.1,0.2-0.2,0.2-0.3c0-0.1,0-0.2-0.1-0.2c-0.1-0.1-0.2-0.1-0.3-0.2c-0.1,0-0.2-0.1-0.4-0.1
					c-0.3-0.1-0.5-0.1-0.6-0.2c-0.2-0.1-0.3-0.2-0.4-0.3c-0.1-0.1-0.2-0.3-0.2-0.5c0-0.2,0.1-0.4,0.2-0.5c0.1-0.2,0.3-0.3,0.5-0.4
					c0.2-0.1,0.5-0.1,0.7-0.1c0.2,0,0.4,0,0.6,0.1c0.2,0.1,0.4,0.1,0.5,0.2l-0.2,0.5c-0.1-0.1-0.3-0.2-0.5-0.2
					c-0.2,0-0.3-0.1-0.5-0.1c-0.2,0-0.4,0-0.5,0.1c-0.1,0.1-0.2,0.2-0.2,0.3c0,0.1,0,0.2,0.1,0.2c0.1,0.1,0.2,0.1,0.3,0.1
					c0.1,0,0.2,0.1,0.4,0.1c0.2,0.1,0.5,0.1,0.6,0.2c0.2,0.1,0.3,0.2,0.4,0.3c0.1,0.1,0.2,0.3,0.2,0.5c0,0.2-0.1,0.4-0.2,0.5
					c-0.1,0.2-0.3,0.3-0.5,0.4c-0.2,0.1-0.5,0.1-0.7,0.1C73.9,34.2,73.6,34.2,73.4,34.1z"/>
				<path class="st0" d="M77,31.2h-1.1v-0.5h2.9v0.5h-1.1v2.9H77V31.2z"/>
				<path class="st0" d="M82,33.6v0.5h-2.5v-3.5h2.5v0.5h-1.8v0.9h1.6v0.5h-1.6v1H82z"/>
				<path class="st0" d="M86,34.1l0-2.3l-1.1,1.9h-0.3l-1.1-1.9v2.3h-0.6v-3.5h0.5l1.3,2.3l1.3-2.3h0.5l0,3.5H86z"/>
				<path class="st0" d="M89.9,33.3h-1.7l-0.3,0.8h-0.6l1.5-3.5h0.6l1.5,3.5h-0.7L89.9,33.3z M89.7,32.8l-0.6-1.5l-0.6,1.5H89.7z"/>
				<path class="st0" d="M91.9,34.1c-0.2-0.1-0.4-0.2-0.6-0.3l0.2-0.5c0.1,0.1,0.3,0.2,0.5,0.3c0.2,0.1,0.4,0.1,0.6,0.1
					c0.2,0,0.4,0,0.6-0.1c0.1-0.1,0.2-0.2,0.2-0.3c0-0.1,0-0.2-0.1-0.2c-0.1-0.1-0.2-0.1-0.3-0.2c-0.1,0-0.2-0.1-0.4-0.1
					c-0.3-0.1-0.5-0.1-0.6-0.2c-0.2-0.1-0.3-0.2-0.4-0.3c-0.1-0.1-0.2-0.3-0.2-0.5c0-0.2,0.1-0.4,0.2-0.5c0.1-0.2,0.3-0.3,0.5-0.4
					c0.2-0.1,0.5-0.1,0.7-0.1c0.2,0,0.4,0,0.6,0.1c0.2,0.1,0.4,0.1,0.5,0.2l-0.2,0.5c-0.1-0.1-0.3-0.2-0.5-0.2
					c-0.2,0-0.3-0.1-0.5-0.1c-0.2,0-0.4,0-0.5,0.1C92,31.4,92,31.5,92,31.6c0,0.1,0,0.2,0.1,0.2c0.1,0.1,0.2,0.1,0.3,0.1
					c0.1,0,0.2,0.1,0.4,0.1c0.2,0.1,0.5,0.1,0.6,0.2c0.2,0.1,0.3,0.2,0.4,0.3c0.1,0.1,0.2,0.3,0.2,0.5c0,0.2-0.1,0.4-0.2,0.5
					c-0.1,0.2-0.3,0.3-0.5,0.4c-0.2,0.1-0.5,0.1-0.7,0.1C92.4,34.2,92.1,34.2,91.9,34.1z"/>
			</g>
		</g>
		<g>
			<path class="st1" d="M62.3,26.3h-4.5l-1.7-4.8h-9.2L45,26.3h-4.4l8.7-23.6h4.3H54L51.5,9l-3,8.1h6.1l-1.5-3.8l2.2-5.9L62.3,26.3z
				"/>
			<path class="st1" d="M68.3,16.7v9.7H64V2.7h11.2v4.4h-6.9v5.3"/>
			<path class="st1" d="M87.8,26.3h-4.3V16.1L76.9,2.7h4.6l0.8,1.6l5.4,11.3V26.3z M89.7,12.4l-2.3-4.6l2.5-5.1h4.5L89.7,12.4z"/>
		</g>
		<path class="st1" d="M70.5,12.3"/>
		<g>
			<path class="st1" d="M31.1,14.5l3.2-2.9c-0.5-0.5-1-0.8-1.3-1.2c-0.5-0.5-0.9-0.8-1.1-1c-0.2-0.4-0.3-0.7-0.3-1
				c0-0.4,0.2-0.8,0.5-1c0.3-0.3,0.7-0.4,1.4-0.4c1.1,0,2.2,0.7,3.2,2.1l3.1-2.9c-1.1-1.2-2.2-2.1-3.1-2.5c-1-0.6-2.1-0.8-3.3-0.8
				c-1.7,0-3.1,0.6-4.4,1.7c-1.2,1.1-1.8,2.5-1.8,4c0,1,0.4,2.1,1.2,3.2C28.9,12.4,29.8,13.3,31.1,14.5z"/>
			<path class="st1" d="M37.7,14.5c-0.1-0.1-0.3-0.2-0.4-0.4c-0.2-0.2-0.5-0.5-0.9-0.8l-3.2,3c1.2,1,2,1.7,2.5,2.3
				c0.3,0.5,0.5,1,0.5,1.6c0,0.5-0.2,1-0.7,1.5c-0.5,0.4-1.2,0.6-1.9,0.6c-1.3,0-2.4-0.9-3.4-2.6l-3,3c1.6,2.5,3.5,3.7,6.3,3.7
				c2.1,0,3.8-0.6,5-1.8c1.3-1.2,1.9-2.7,1.9-4.6c0-1.9-0.8-3.6-2.3-5.1C37.9,14.7,37.8,14.6,37.7,14.5z"/>
		</g>
		<rect x="70.3" y="12.3" class="st1" width="4.2" height="4.2"/>
	</g>
	<path class="st1" d="M22.2,14.5l-4.4,0h-4.9H8c0-3.3,1.4-7.7,4.9-7.7c0,0,0,0,0,0h0c0,0,0,0,0,0c2.9,0,4.4,3.2,4.8,6.2h4.3
		c-0.8-5.4-3.9-10.3-9-10.3v0c0,0,0,0,0,0c0,0,0,0,0,0v0c0,0,0,0,0,0s0,0,0,0v0c0,0,0,0,0,0c0,0,0,0,0,0v0c-5.7,0-9.3,5.9-9.3,11.8
		c0,0.9,0,1.7,0,2.6c0,1.3,0,4.2,0,7.5c0,5.9,9.3,9.7,9.3,9.7s0,0,0,0s0,0,0,0s9.3-3.8,9.3-9.7c0-3.3,0-6.1,0-7.5
		C22.2,16.2,22.2,14.5,22.2,14.5z M12.9,27.7C12.9,27.7,12.9,27.7,12.9,27.7L12.9,27.7C12.9,27.7,12.9,27.7,12.9,27.7
		c-1.5,0-2.7-1.2-2.7-2.6l1.2-2.2v-3.7c0-0.8,0.7-1.4,1.5-1.4c0,0,0,0,0,0h0c0,0,0,0,0,0c0.8,0,1.5,0.6,1.5,1.4v3.7l1.2,2.2
		C15.6,26.6,14.4,27.7,12.9,27.7z"/>
</g>
</svg>
