<svg id="Layer_1" data-name="Layer 1" xmlns="http://www.w3.org/2000/svg" viewBox="0 0 26.1 26.1"><defs><style>.cls-1{fill:#d7eaf1;}.cls-2{fill:#f79979;}.cls-3{fill:#f47b67;}.cls-4{fill:#bf2f29;}.cls-5{fill:#ef3c34;}.cls-6{fill:#091933;}.cls-7{fill:#fff;}</style></defs><path class="cls-1" d="M27.52,15.05a13,13,0,0,1-4,9.37,12.75,12.75,0,0,1-2.13,1.67,11.84,11.84,0,0,1-1,.59,13.05,13.05,0,0,1-11.84,0,9.47,9.47,0,0,1-1-.59,12.35,12.35,0,0,1-2.13-1.67,13,13,0,1,1,22.13-9.37Z" transform="translate(-1.42 -2)"/><path class="cls-2" d="M23.55,24.42a12.75,12.75,0,0,1-2.13,1.67,11.84,11.84,0,0,1-1,.59,13.05,13.05,0,0,1-11.84,0,9.47,9.47,0,0,1-1-.59,12.35,12.35,0,0,1-2.13-1.67A5.81,5.81,0,0,1,8.15,22.2l1.2-.47a4.34,4.34,0,0,0,.62-.28,5.25,5.25,0,0,0,.83-.56,5.61,5.61,0,0,0,.65-.64A5.22,5.22,0,0,0,12.57,18l.09-.47.16-.77.12-.57h0l.1-.46H15.9l.1.46.11.57L16.37,18a5.2,5.2,0,0,0,.3,1,5.36,5.36,0,0,0,.82,1.33,4.91,4.91,0,0,0,.65.64,5.25,5.25,0,0,0,.83.56,4.22,4.22,0,0,0,.61.28l1.2.47A5.84,5.84,0,0,1,23.55,24.42Z" transform="translate(-1.42 -2)"/><path class="cls-3" d="M16.67,18.92a3.8,3.8,0,0,1-1,.16,4.09,4.09,0,0,1-3.05-1.6l.38-1.8H15.9L16.37,18A5.2,5.2,0,0,0,16.67,18.92Z" transform="translate(-1.42 -2)"/><path class="cls-4" d="M19,21.45a.72.72,0,0,1-.32.11.76.76,0,0,1-.63-.17.77.77,0,0,1-.56.31.79.79,0,0,1-.62-.19.84.84,0,0,1-.58.29.86.86,0,0,1-.61-.22.82.82,0,0,1-.58.27.83.83,0,0,1-.6-.25.85.85,0,0,1-.6.25.86.86,0,0,1-.59-.27.85.85,0,0,1-.61.22.81.81,0,0,1-.57-.29.84.84,0,0,1-1.19-.12.74.74,0,0,1-.62.17.68.68,0,0,1-.32-.11,5.25,5.25,0,0,0,.83-.56,5.61,5.61,0,0,0,.65-.64h.17a.81.81,0,0,1,.55.31.83.83,0,0,1,.59-.22.84.84,0,0,1,.56.28.84.84,0,0,1,.58-.23.75.75,0,0,1,.57.26.75.75,0,0,1,.57-.26.84.84,0,0,1,.58.23.84.84,0,0,1,.56-.28.81.81,0,0,1,.58.22.81.81,0,0,1,.55-.31h.18a4.91,4.91,0,0,0,.65.64A5.25,5.25,0,0,0,19,21.45Z" transform="translate(-1.42 -2)"/><path class="cls-5" d="M23.55,24.42a12.75,12.75,0,0,1-2.13,1.67,11.84,11.84,0,0,1-1,.59,13.05,13.05,0,0,1-11.84,0,9.47,9.47,0,0,1-1-.59,12.35,12.35,0,0,1-2.13-1.67A5.81,5.81,0,0,1,8.15,22.2l1.2-.47a4.34,4.34,0,0,0,.62-.28,5.25,5.25,0,0,0,.83-.56,30,30,0,0,0,7.34,0,5.25,5.25,0,0,0,.83.56,4.22,4.22,0,0,0,.61.28l1.2.47A5.84,5.84,0,0,1,23.55,24.42Z" transform="translate(-1.42 -2)"/><path class="cls-6" d="M18.55,7a3.82,3.82,0,0,0-2.23-1.79,5.59,5.59,0,0,0-3.7,0A3.79,3.79,0,0,0,10.39,7a11.11,11.11,0,0,0-.72,4.54l.9,1,3.9-.53,3.9.53.9-1A11.3,11.3,0,0,0,18.55,7Z" transform="translate(-1.42 -2)"/><path class="cls-6" d="M18.57,14.41s2.13,1,2.35,6.63C20.92,21,17.54,18.46,18.57,14.41Z" transform="translate(-1.42 -2)"/><path class="cls-5" d="M19,14.41a.64.64,0,1,1-.64-.64A.64.64,0,0,1,19,14.41Z" transform="translate(-1.42 -2)"/><path class="cls-6" d="M14.47,10.51l-4.79,2c.34,3.39,4.79,4,4.79,4s4.44-.64,4.79-4Z" transform="translate(-1.42 -2)"/><path class="cls-2" d="M19.39,11.74a.76.76,0,0,0-.21-.43.65.65,0,0,0-.41-.13,1.2,1.2,0,0,0-.42.12,4.51,4.51,0,0,0-.06-1v0a4.47,4.47,0,0,0-1.4-2.7,4.44,4.44,0,0,0-2-1,1.84,1.84,0,0,0-.81,0,4.18,4.18,0,0,0-3.41,3.66h0a5.16,5.16,0,0,0-.07,1.06,1.2,1.2,0,0,0-.42-.12.64.64,0,0,0-.4.13.65.65,0,0,0-.21.43,1.32,1.32,0,0,0,.21.93,1.27,1.27,0,0,0,.77.55,4.16,4.16,0,0,0,3.94,3.93,4.15,4.15,0,0,0,3.93-3.93,1.33,1.33,0,0,0,1-1.48Z" transform="translate(-1.42 -2)"/><path class="cls-4" d="M8.55,26.68a9.47,9.47,0,0,1-1-.59L8,23.57Z" transform="translate(-1.42 -2)"/><path class="cls-4" d="M21.42,26.09a11.84,11.84,0,0,1-1,.59L21,23.57Z" transform="translate(-1.42 -2)"/><path class="cls-3" d="M14.28,11.38v2.3h.39C15.34,13.68,14.4,11.64,14.28,11.38Z" transform="translate(-1.42 -2)"/><path class="cls-6" d="M17.12,10.48a2.06,2.06,0,0,0-1.7-.08c-.24.09-.14.48.1.39a1.65,1.65,0,0,1,1.39,0C17.15,10.94,17.35,10.6,17.12,10.48Z" transform="translate(-1.42 -2)"/><path class="cls-6" d="M16.63,11.2a.44.44,0,0,0-.38-.2.38.38,0,0,0,0,.76.28.28,0,0,0,.13,0h.05a.66.66,0,0,0,.36-.52C16.73,11.26,16.63,11.2,16.63,11.2Z" transform="translate(-1.42 -2)"/><path class="cls-6" d="M11.82,10.48a2.06,2.06,0,0,1,1.7-.08c.24.09.13.48-.11.39a1.65,1.65,0,0,0-1.39,0C11.79,10.94,11.59,10.6,11.82,10.48Z" transform="translate(-1.42 -2)"/><path class="cls-6" d="M12.3,11.2a.45.45,0,0,1,.38-.2.38.38,0,1,1,0,.76.31.31,0,0,1-.13,0h0a.69.69,0,0,1-.37-.52A.14.14,0,0,0,12.3,11.2Z" transform="translate(-1.42 -2)"/><path class="cls-7" d="M13.23,14.53a1.32,1.32,0,0,0,2.48,0Z" transform="translate(-1.42 -2)"/></svg>